<?xml version="1.0" encoding="UTF-8"?>
<svg width="345px" height="169px" viewBox="0 0 345 169" version="1.1" xmlns="http://www.w3.org/2000/svg" xmlns:xlink="http://www.w3.org/1999/xlink">
    <!-- Generator: Sketch 49.3 (51167) - http://www.bohemiancoding.com/sketch -->
    <title>404</title>
    <desc>Created with Sketch.</desc>
    <defs>
        <path d="M97,14 L270,14 C275.522847,14 280,18.4771525 280,24 L280,131 C280,136.522847 275.522847,141 270,141 L124.364233,141 L97,141 C91.4771525,141 87,136.522847 87,131 L87,124.477166 L87,24 C87,18.4771525 91.4771525,14 97,14 Z" id="path-1"></path>
        <rect id="path-2" x="260" y="97" width="43" height="70" rx="6"></rect>
        <rect id="path-3" x="0" y="0" width="75" height="101" rx="8"></rect>
        <rect id="path-4" x="6" y="6" width="64" height="84" rx="6"></rect>
    </defs>
    <g id="Page-1" stroke="none" stroke-width="1" fill="none" fill-rule="evenodd">
        <g id="空状态" transform="translate(-331.000000, -311.000000)">
            <g id="404" transform="translate(332.000000, 311.000000)">
                <g>
                    <g id="Rectangle-27">
                        <use fill="#FFFFFF" fill-rule="evenodd" xlink:href="#path-1"></use>
                        <path stroke="#D3DFEF" stroke-width="2" d="M97,15 C92.0294373,15 88,19.0294373 88,24 L88,131 C88,135.970563 92.0294373,140 97,140 L270,140 C274.970563,140 279,135.970563 279,131 L279,24 C279,19.0294373 274.970563,15 270,15 L97,15 Z"></path>
                    </g>
                    <rect id="Rectangle-26" stroke="#D3DFEF" stroke-width="2" x="97" y="22" width="173" height="99" rx="6"></rect>
                    <g id="Rectangle-23">
                        <use fill="#FFFFFF" fill-rule="evenodd" xlink:href="#path-2"></use>
                        <rect stroke="#D3DFEF" stroke-width="2" x="261" y="98" width="41" height="68" rx="6"></rect>
                    </g>
                    <rect id="Rectangle-24" stroke="#D3DFEF" stroke-width="2" x="266" y="104" width="31" height="23" rx="4"></rect>
                    <path d="M279.540208,141 L273.534215,146.927208 C272.821928,147.630152 272.821928,148.769848 273.534215,149.472792 C274.246503,150.175736 275.401349,150.175736 276.113636,149.472792 L282.119629,143.545584 L287.886364,149.236673 C288.598651,149.939616 289.753497,149.939616 290.465785,149.236673 C291.178072,148.533729 291.178072,147.394032 290.465785,146.691088 L284.69905,141 L290.465785,135.308912 C291.178072,134.605968 291.178072,133.466271 290.465785,132.763327 C289.753497,132.060384 288.598651,132.060384 287.886364,132.763327 L282.119629,138.454416 L276.113636,132.527208 C275.401349,131.824264 274.246503,131.824264 273.534215,132.527208 C272.821928,133.230152 272.821928,134.369848 273.534215,135.072792 L279.540208,141 Z M265,124 L298,124 L298,154 C298,156.209139 296.209139,158 294,158 L269,158 C266.790861,158 265,156.209139 265,154 L265,124 Z" id="Combined-Shape" fill="#2A6CE6"></path>
                    <path d="M285.5,110.5 L291.582763,110.5" id="Line-2" stroke="#D3DFEF" stroke-width="2" stroke-linecap="round"></path>
                    <path d="M280.988195,120.5 L291.582763,120.5" id="Line-2-Copy-2" stroke="#D3DFEF" stroke-width="2" stroke-linecap="round"></path>
                    <path d="M275.99198,115.5 L291.582763,115.5" id="Line-2-Copy" stroke="#D3DFEF" stroke-width="2" stroke-linecap="round"></path>
                    <path d="M123.5,41.5 L130.5,41.5" id="Line-3" stroke="#D3DFEF" stroke-width="2" stroke-linecap="round"></path>
                    <path d="M139.5,41.5 L190.002475,41.5" id="Line-3-Copy" stroke="#D3DFEF" stroke-width="2" stroke-linecap="round"></path>
                    <path d="M123.5,55.5 L189.001908,55.5" id="Line-3-Copy-2" stroke="#D3DFEF" stroke-width="2" stroke-linecap="round"></path>
                    <path d="M139.997449,70.5 L189.001908,70.5" id="Line-3-Copy-3" stroke="#D3DFEF" stroke-width="2" stroke-linecap="round"></path>
                    <path d="M139.997449,84.5 L189.001908,84.5" id="Line-3-Copy-4" stroke="#D3DFEF" stroke-width="2" stroke-linecap="round"></path>
                    <path d="M139.997449,98.5 L156.007809,98.5" id="Line-3-Copy-5" stroke="#D3DFEF" stroke-width="2" stroke-linecap="round"></path>
                    <path d="M164.997449,98.5 L189.005207,98.5" id="Line-3-Copy-6" stroke="#D3DFEF" stroke-width="2" stroke-linecap="round"></path>
                    <path d="M225.263692,70 L214.920038,80.5372583 C213.693321,81.786936 213.693321,83.813064 214.920038,85.0627417 C216.146755,86.3124194 218.135656,86.3124194 219.362373,85.0627417 L229.706028,74.5254834 L239.637627,84.6429737 C240.864344,85.8926514 242.853245,85.8926514 244.079962,84.6429737 C245.306679,83.3932959 245.306679,81.367168 244.079962,80.1174903 L234.148363,70 L244.079962,59.8825097 C245.306679,58.632832 245.306679,56.6067041 244.079962,55.3570263 C242.853245,54.1073486 240.864344,54.1073486 239.637627,55.3570263 L229.706028,65.4745166 L219.362373,54.9372583 C218.135656,53.6875806 216.146755,53.6875806 214.920038,54.9372583 C213.693321,56.186936 213.693321,58.213064 214.920038,59.4627417 L225.263692,70 Z M229,100 C212.431458,100 199,86.5685425 199,70 C199,53.4314575 212.431458,40 229,40 C245.568542,40 259,53.4314575 259,70 C259,86.5685425 245.568542,100 229,100 Z" id="Combined-Shape" fill="#2A6CE6"></path>
                    <path d="M216,163 L152,163 C150.895431,163 150,163.895431 150,165 C150,166.104569 150.895431,167 152,167 L216,167 C217.104569,167 218,166.104569 218,165 C218,163.895431 217.104569,163 216,163 Z" id="Rectangle-28" stroke="#D3DFEF" stroke-width="2"></path>
                    <path d="M172.570279,140.56526 C173.58639,148.624652 172.463211,154.380721 169.200742,157.833466 C165.938273,161.286211 160.188121,163.009773 151.950286,163.004152" id="Path-3" stroke="#D3DFEF" stroke-width="2"></path>
                    <path d="M215.800219,140.633253 C216.798501,148.647315 215.666407,154.380719 212.403938,157.833463 C209.141469,161.286208 203.684628,163.007968 196.033417,162.998745" id="Path-3" stroke="#D3DFEF" stroke-width="2" transform="translate(206.092239, 151.816126) scale(-1, 1) translate(-206.092239, -151.816126) "></path>
                    <path d="M0.5,167.5 L342.501462,167.5" id="Line-6" stroke="#D3DFEF" stroke-width="2" stroke-linecap="round"></path>
                    <g id="Group" transform="translate(50.000000, 67.000000)">
                        <g id="Rectangle-5">
                            <use fill="#FFFFFF" fill-rule="evenodd" xlink:href="#path-3"></use>
                            <rect stroke="#D3DFEF" stroke-width="2" x="1" y="1" width="73" height="99" rx="8"></rect>
                        </g>
                        <g id="Rectangle">
                            <use fill="#FFFFFF" fill-rule="evenodd" xlink:href="#path-4"></use>
                            <rect stroke="#D3DFEF" stroke-width="2" x="7" y="7" width="62" height="82" rx="6"></rect>
                        </g>
                        <path d="M32.136039,34.5 L25.3180195,41.3180195 C23.5606602,43.0753788 23.5606602,45.9246212 25.3180195,47.6819805 C27.0753788,49.4393398 29.9246212,49.4393398 31.6819805,47.6819805 L38.5,40.863961 L45.3180195,47.6819805 C47.0753788,49.4393398 49.9246212,49.4393398 51.6819805,47.6819805 C53.4393398,45.9246212 53.4393398,43.0753788 51.6819805,41.3180195 L44.863961,34.5 L51.6819805,27.6819805 C53.4393398,25.9246212 53.4393398,23.0753788 51.6819805,21.3180195 C49.9246212,19.5606602 47.0753788,19.5606602 45.3180195,21.3180195 L38.5,28.136039 L31.6819805,21.3180195 C29.9246212,19.5606602 27.0753788,19.5606602 25.3180195,21.3180195 C23.5606602,23.0753788 23.5606602,25.9246212 25.3180195,27.6819805 L32.136039,34.5 Z M10,6 L66,6 C68.209139,6 70,7.790861 70,10 L70,63 L6,63 L6,10 C6,7.790861 7.790861,6 10,6 Z" id="Combined-Shape" fill="#2A6CE6"></path>
                        <path d="M14.5,70.5 L39.519992,70.5" id="Line" stroke="#D3DFEF" stroke-width="2" stroke-linecap="round"></path>
                        <path d="M14.5,75.5 L48.0037311,75.5" id="Line-Copy" stroke="#D3DFEF" stroke-width="2" stroke-linecap="round"></path>
                        <path d="M14.5,80.5 L25.011898,80.5" id="Line-Copy-2" stroke="#D3DFEF" stroke-width="2" stroke-linecap="round"></path>
                        <circle id="Oval" fill="#D3DFEF" cx="38" cy="95" r="3"></circle>
                    </g>
                    <circle id="Oval-Copy" fill="#D3DFEF" cx="282" cy="162" r="2"></circle>
                    <path d="M40,72 C39.4477153,72 39,71.5522847 39,71 C39,70.4477153 39.4477153,70 40,70 L45,70 C45.5522847,70 46,70.4477153 46,71 C46,71.5522847 45.5522847,72 45,72 L40,72 Z M43.7573593,62.1715729 C43.366835,61.7810486 43.366835,61.1478836 43.7573593,60.7573593 C44.1478836,60.366835 44.7810486,60.366835 45.1715729,60.7573593 L48.7071068,64.2928932 C49.0976311,64.6834175 49.0976311,65.3165825 48.7071068,65.7071068 C48.3165825,66.0976311 47.6834175,66.0976311 47.2928932,65.7071068 L43.7573593,62.1715729 Z M55,62 C55,62.5522847 54.5522847,63 54,63 C53.4477153,63 53,62.5522847 53,62 L53,57 C53,56.4477153 53.4477153,56 54,56 C54.5522847,56 55,56.4477153 55,57 L55,62 Z" id="Combined-Shape" fill="#D3DFEF" fill-rule="nonzero"></path>
                    <path d="M276.1875,19 C275.531662,19 275,18.4683381 275,17.8125 C275,17.1566619 275.531662,16.625 276.1875,16.625 L282.125,16.625 C282.780838,16.625 283.3125,17.1566619 283.3125,17.8125 C283.3125,18.4683381 282.780838,19 282.125,19 L276.1875,19 Z M280.649364,7.32874279 C280.185617,6.86499519 280.185617,6.11311178 280.649364,5.64936418 C281.113112,5.18561659 281.864995,5.18561659 282.328743,5.64936418 L286.527189,9.8478107 C286.990937,10.3115583 286.990937,11.0634417 286.527189,11.5271893 C286.063442,11.9909369 285.311558,11.9909369 284.847811,11.5271893 L280.649364,7.32874279 Z M294,7.125 C294,7.78083814 293.468338,8.3125 292.8125,8.3125 C292.156662,8.3125 291.625,7.78083814 291.625,7.125 L291.625,1.1875 C291.625,0.53166186 292.156662,0 292.8125,0 C293.468338,0 294,0.53166186 294,1.1875 L294,7.125 Z" id="Combined-Shape-Copy" fill="#D3DFEF" fill-rule="nonzero" transform="translate(284.500000, 9.500000) scale(-1, 1) translate(-284.500000, -9.500000) "></path>
                </g>
            </g>
        </g>
    </g>
</svg>