<?xml version="1.0" encoding="UTF-8"?>
<svg width="16px" height="16px" viewBox="0 0 16 16" version="1.1" xmlns="http://www.w3.org/2000/svg" xmlns:xlink="http://www.w3.org/1999/xlink">
    <title>7.图标/图片备份</title>
    <g id="7.图标/图片备份" stroke="none" stroke-width="1" fill="none" fill-rule="evenodd">
        <g id="编组-2" transform="translate(3.000000, 4.000000)" fill="#3464E0" fill-rule="nonzero">
            <path d="M6.81875,3.28915094 L3.18125,3.28915094 C2.90165585,3.28915094 2.67500002,3.06249509 2.67500002,2.78290094 C2.67500002,2.5033068 2.90165585,2.27665094 3.18125,2.27665094 L6.81875,2.27665094 C7.09834415,2.27665094 7.325,2.50330679 7.325,2.78290094 C7.325,3.0624951 7.09834415,3.28915094 6.81875,3.28915094 L6.81875,3.28915094 Z M5.865625,5.47665094 L3.18125,5.47665094 C2.90165585,5.47665094 2.675,5.2499951 2.675,4.97040094 C2.675,4.69080679 2.90165585,4.46415094 3.18125,4.46415094 L5.865625,4.46415094 C6.14521915,4.46415094 6.371875,4.69080679 6.371875,4.97040094 C6.371875,5.2499951 6.14521915,5.47665094 5.865625,5.47665094 L5.865625,5.47665094 Z" id="形状"></path>
            <path d="M9,-0.5 L1,-0.5 C0.171572875,-0.5 -0.5,0.171572875 -0.5,1 L-0.5,7 C-0.5,7.82842712 0.171572875,8.5 1,8.5 L3.26932686,8.5 C3.29855563,8.5 3.3263213,8.51278788 3.34532008,8.53499976 L4.50882089,9.89335905 L4.55836157,9.94029377 C4.85197826,10.1917859 5.29387625,10.1576372 5.54536835,9.86402047 L6.68376185,8.53494761 C6.70276027,8.51276698 6.73050564,8.5 6.75971043,8.5 L9,8.5 C9.82842712,8.5 10.5,7.82842712 10.5,7 L10.5,1 C10.5,0.171572875 9.82842712,-0.5 9,-0.5 Z M1,0.5 L9,0.5 C9.27614237,0.5 9.5,0.723857625 9.5,1 L9.5,7 C9.5,7.27614237 9.27614237,7.5 9,7.5 L6.75971043,7.5 L6.62324728,7.50849063 C6.35322158,7.54223808 6.103404,7.6752921 5.92427608,7.8844237 L5.013,8.947 L4.10525227,7.88499741 C3.89626577,7.64066665 3.59084339,7.5 3.26932686,7.5 L1,7.5 C0.723857625,7.5 0.5,7.27614237 0.5,7 L0.5,1 C0.5,0.723857625 0.723857625,0.5 1,0.5 Z" id="矩形"></path>
        </g>
    </g>
</svg>