<svg xmlns="http://www.w3.org/2000/svg" viewBox="0 0 150 150" class="design-iconfont" width="128" height="128">
  <path d="M75 0C55.1088 0 36.0322 7.90176 21.967 21.967C7.90176 36.0322 0 55.1088 0 75C0 94.8912 7.90176 113.968 21.967 128.033C36.0322 142.098 55.1088 150 75 150C94.8912 150 113.968 142.098 128.033 128.033C142.098 113.968 150 94.8912 150 75C150 55.1088 142.098 36.0322 128.033 21.967C113.968 7.90176 94.8912 0 75 0V0Z" fill="#ECF2F9"></path>
  <path d="M122.732 109.789C118.646 107.289 106.282 106.264 101.725 104.789C100.188 104.198 98.7184 103.442 97.3429 102.536L53.2893 102.279C51.3734 103.285 49.3728 104.122 47.3107 104.779C42.7643 106.257 33.125 106.229 28.9929 108.654C22.35 112.554 18.3571 116.682 15.9714 121.268C22.9673 130.192 31.8956 137.413 42.0848 142.389C52.2739 147.365 63.4587 149.965 74.7979 149.995C86.137 150.025 97.3353 147.483 107.551 142.561C117.766 137.64 126.732 130.465 133.775 121.579C131.404 116.786 127.796 112.889 122.732 109.789Z" fill="#008AFF"></path>
  <path d="M96.6858 103.061C70.4358 123.775 53.925 102.811 53.925 102.811L53.9965 102.775C57.5286 100.868 59.675 98.9679 59.675 94.95V81.5107C63.0286 85.2464 67.7108 87.7857 74.2643 87.7857C81.2893 87.7857 86.1108 84.8679 89.4001 80.6786V93.6643C89.4001 98.9536 92.0929 100.193 96.5786 102.996L96.6858 103.061Z" fill="#FFCEBC"></path>
  <path d="M95.5572 101.254C74.2 117.493 59.4107 105.932 54.8107 101.282C54.3556 101.651 53.8706 101.982 53.3607 102.271L53.2893 102.314C53.2893 102.314 70.2964 124.743 97.3429 102.582L97.2322 102.511C96.6464 102.13 96.0868 101.71 95.5572 101.254Z" fill="#fff"></path>
  <path d="M60.1108 80.9178C60.1108 80.9178 64.3966 89.8785 71.3716 94.0428C76.4216 97.0642 82.9573 95.8928 86.3716 90.9607C88.0787 88.5035 89.3823 84.8892 89.3823 79.5607C89.3823 79.5607 83.8108 87.2642 75.5037 87.625C67.1966 87.9857 60.1108 80.9178 60.1108 80.9178Z" fill="#FEBA9B"></path>
  <path d="M53.3393 58.4036C53.3393 58.4036 51.0858 55.15 48.4179 56.7286C45.7501 58.3072 46.5965 64.1357 48.4179 67.05C50.2393 69.9643 53.1786 71.4036 54.8036 69.1643" fill="#FEC6AF"></path>
  <path d="M94.8107 58.9285C94.8107 58.9285 97.0643 55.6749 99.7357 57.2535C102.407 58.8321 101.554 64.6606 99.7357 67.5749C97.9179 70.4892 94.975 71.9285 93.3464 69.6928" fill="#FEC6AF"></path>
  <path d="M89.4 80.6785C86.1107 84.8678 81.2893 87.7856 74.2643 87.7856C67.7107 87.7856 63.0286 85.2464 59.675 81.5106C50.275 71.0285 51.3607 51.0999 51.3607 51.0999C51.3607 51.0999 50.1536 29.2856 75.1072 29.2856C98.3215 29.2856 96.3965 51.1071 96.3965 51.1071C96.3965 51.1071 97.825 69.9999 89.4 80.6785Z" fill="#FFE8DE"></path>
  <path d="M78.8893 18.8821C65.3714 19.0821 60.5286 27.7642 60.3786 28.0392H60.3357C59.8107 27.85 52.3393 25.2928 48.7072 32.9071C45.5964 39.4321 49.2214 51.4785 50.5714 55.4464C50.9929 57.2321 51.4536 59.0178 51.9036 60.75L53.9286 46.4285C54.1644 44.7594 54.7341 43.1548 55.6036 41.7107C56.675 39.925 60.9964 33.8857 67.25 38.075C74.0822 42.6535 82.075 49.625 93.5964 43.4321L95.5072 61.8321C96.5815 58.5815 97.4558 55.2682 98.125 51.9107V51.9107C106.689 26.2892 90.2036 18.7107 78.8893 18.8821Z" fill="#252021"></path>
  <path fill-rule="evenodd" clip-rule="evenodd" d="M60.4488 56.1648L60.4517 56.1617C60.4557 56.1575 60.4627 56.1502 60.4726 56.1402C60.4926 56.1201 60.5243 56.089 60.5676 56.0494C60.6542 55.9701 60.7862 55.8574 60.9613 55.7309C61.312 55.4776 61.8302 55.1728 62.4962 54.9698C63.8071 54.5703 65.7575 54.5437 68.2275 56.2343C68.4359 56.3769 68.7204 56.3236 68.863 56.1153C69.0056 55.9069 68.9523 55.6224 68.7439 55.4798C66.0533 53.6383 63.8161 53.6117 62.2297 54.0952C61.447 54.3338 60.8391 54.6913 60.4259 54.9898C60.2189 55.1393 60.0596 55.2749 59.9502 55.375C59.8955 55.4251 59.8532 55.4664 59.8235 55.4964C59.8086 55.5113 59.797 55.5234 59.7885 55.5324L59.7781 55.5434L59.7748 55.547L59.7735 55.5484L59.773 55.5489C59.7728 55.5492 59.7726 55.5494 60.1107 55.8571L59.7726 55.5494C59.6027 55.7361 59.6163 56.0253 59.803 56.1952C59.9896 56.365 60.2785 56.3515 60.4485 56.1651L60.4482 56.1654L60.448 56.1657C60.4477 56.1659 60.4477 56.166 60.4478 56.1658M60.4488 56.1648L60.4485 56.1651L60.448 56.1657" fill="#333"></path>
  <path fill-rule="evenodd" clip-rule="evenodd" d="M88.9958 55.5246C88.9961 55.5249 88.9963 55.5251 88.6821 55.8571L88.9963 55.5251C89.1797 55.6986 89.1876 55.988 89.0141 56.1713C88.841 56.3543 88.5525 56.3627 88.3691 56.1903M88.3684 56.1897L88.3686 56.1898L88.3659 56.1874C88.3623 56.1841 88.3558 56.1783 88.3463 56.1701C88.3274 56.1537 88.297 56.1281 88.2552 56.0953C88.1715 56.0297 88.0429 55.9357 87.8714 55.8299C87.5281 55.6183 87.0152 55.3613 86.348 55.1896C85.0263 54.8494 83.0537 54.832 80.5317 56.2552C80.3119 56.3793 80.033 56.3017 79.909 56.0818C79.7849 55.8619 79.8625 55.5831 80.0824 55.459C82.8068 53.9215 85.0218 53.9041 86.5759 54.3041C87.3467 54.5025 87.9439 54.8006 88.3511 55.0516C88.5549 55.1772 88.7117 55.2913 88.8196 55.3761C88.8736 55.4184 88.9155 55.4535 88.945 55.4791C88.9598 55.4919 88.9714 55.5023 88.98 55.51L88.9905 55.5197L88.994 55.5229L88.9953 55.5241L88.9958 55.5246" fill="#333"></path>
  <path d="M64.525 59.0214C64.2121 59.0214 63.9024 59.083 63.6134 59.2027C63.3243 59.3224 63.0617 59.4979 62.8405 59.7191C62.6193 59.9403 62.4439 60.2029 62.3242 60.4919C62.2044 60.7809 62.1428 61.0907 62.1428 61.4035C62.1428 61.7163 62.2044 62.0261 62.3242 62.3151C62.4439 62.6041 62.6193 62.8667 62.8405 63.0879C63.0617 63.3091 63.3243 63.4846 63.6134 63.6043C63.9024 63.724 64.2121 63.7857 64.525 63.7857C64.8378 63.7857 65.1476 63.724 65.4366 63.6043C65.7256 63.4846 65.9882 63.3091 66.2094 63.0879C66.4306 62.8667 66.6061 62.6041 66.7258 62.3151C66.8455 62.0261 66.9071 61.7163 66.9071 61.4035C66.9071 61.0907 66.8455 60.7809 66.7258 60.4919C66.6061 60.2029 66.4306 59.9403 66.2094 59.7191C65.9882 59.4979 65.7256 59.3224 65.4366 59.2027C65.1476 59.083 64.8378 59.0214 64.525 59.0214V59.0214Z" fill="#333"></path>
  <path d="M83.8465 59.0214C83.5337 59.0214 83.2239 59.083 82.9349 59.2027C82.6459 59.3224 82.3833 59.4979 82.1621 59.7191C81.9409 59.9403 81.7654 60.2029 81.6457 60.4919C81.526 60.7809 81.4644 61.0907 81.4644 61.4035C81.4644 61.7163 81.526 62.0261 81.6457 62.3151C81.7654 62.6041 81.9409 62.8667 82.1621 63.0879C82.3833 63.3091 82.6459 63.4846 82.9349 63.6043C83.2239 63.724 83.5337 63.7857 83.8465 63.7857C84.1593 63.7857 84.4691 63.724 84.7581 63.6043C85.0471 63.4846 85.3097 63.3091 85.5309 63.0879C85.7521 62.8667 85.9276 62.6041 86.0473 62.3151C86.167 62.0261 86.2286 61.7163 86.2286 61.4035C86.2286 61.0907 86.167 60.7809 86.0473 60.4919C85.9276 60.2029 85.7521 59.9403 85.5309 59.7191C85.3097 59.4979 85.0471 59.3224 84.7581 59.2027C84.4691 59.083 84.1593 59.0214 83.8465 59.0214V59.0214Z" fill="#333"></path>
  <path fill-rule="evenodd" clip-rule="evenodd" d="M73.9915 61.6079C74.2416 61.6426 74.4161 61.8735 74.3814 62.1236L73.4823 68.6026C73.4849 68.8191 73.5366 69.0323 73.6337 69.2261C73.7349 69.4282 73.8825 69.6035 74.0644 69.7376C74.2463 69.8718 74.4575 69.9609 74.6805 69.9979C74.9035 70.0348 75.132 70.0184 75.3475 69.95C75.5881 69.8736 75.8451 70.0068 75.9215 70.2474C75.9979 70.4881 75.8647 70.7451 75.6241 70.8214C75.2711 70.9335 74.8966 70.9603 74.5312 70.8999C74.1658 70.8394 73.8199 70.6933 73.5218 70.4735C73.2238 70.2537 72.9819 69.9665 72.8161 69.6354C72.6503 69.3042 72.5653 68.9385 72.5679 68.5682L72.5681 68.5382L73.4758 61.9979C73.5105 61.7478 73.7414 61.5732 73.9915 61.6079Z" fill="#FDBD9F"></path>
</svg>