<svg xmlns="http://www.w3.org/2000/svg" viewBox="0 0 178 130" class="design-iconfont" width="128" height="128">
  <path d="M178 97.4072C178 115.408 138.153 130 88.9999 130C39.8466 130 0 115.408 0 97.4072C0 79.4069 39.8466 64.8147 88.9999 64.8147C138.153 64.8147 178 79.4069 178 97.4072Z" fill="url(#paint0_linear_497_4011)"></path>
  <mask id="d5r8vojo2a" maskUnits="userSpaceOnUse" x="0" y="64" width="178" height="66">
    <path d="M178 97.4075C178 115.408 138.153 130 89.0001 130C39.8468 130 0.000183105 115.408 0.000183105 97.4075C0.000183105 79.4071 39.8468 64.8149 89.0001 64.8149C138.153 64.8149 178 79.4071 178 97.4075Z" fill="url(#paint1_linear_497_4011)"></path>
  </mask>
  <g mask="url(#d5r8vojo2a)">
    <path d="M26.287 55.5557C30.7934 65.5557 41.5334 87.7038 46.941 96.2964L101.392 88.1483L76.2321 44.815L26.287 55.5557Z" fill="url(#paint2_linear_497_4011)"></path>
  </g>
  <path d="M131.043 53.2524L89.0001 36.6663V69.8385L131.043 53.2524Z" fill="url(#paint3_linear_497_4011)"></path>
  <path d="M88.9999 36.6663L46.9572 53.2524L88.9999 69.8385V36.6663Z" fill="url(#paint4_linear_497_4011)"></path>
  <mask id="2vvwblkfpb" maskUnits="userSpaceOnUse" x="89" y="53" width="43" height="60">
    <path d="M89.0004 69.8387V112.963L131.043 96.3765V53.2526L89.0004 69.8387Z" fill="#E3EEFF"></path>
  </mask>
  <g mask="url(#2vvwblkfpb)">
    <path d="M89.0004 69.8387V112.963L131.043 96.3765V53.2526L89.0004 69.8387Z" fill="#E3EEFF"></path>
    <g filter="url(#filter0_f_497_4011)">
      <path d="M94.3816 84.7659L88.6638 71.8287L130.706 55.2426L137.097 66.8529L94.3816 84.7659Z" fill="#ADC7F8" fill-opacity=".6"></path>
    </g>
  </g>
  <mask id="p0l2lsy18c" maskUnits="userSpaceOnUse" x="46" y="53" width="43" height="60">
    <path d="M88.9996 112.963V69.8387L46.9569 53.2526V96.3765L88.9996 112.963Z" fill="#CBDFFF"></path>
  </mask>
  <g mask="url(#p0l2lsy18c)">
    <path d="M88.9996 112.963V69.8387L46.9569 53.2526V96.3765L88.9996 112.963Z" fill="#CBDFFF"></path>
    <g filter="url(#filter1_f_497_4011)">
      <path d="M84.2905 84.7659L90.0083 71.8287L47.9656 55.2426L41.5751 66.8529L84.2905 84.7659Z" fill="#ADC7F8" fill-opacity=".6"></path>
    </g>
  </g>
  <path d="M94.3815 82.1124L89.0001 69.8387L131.043 53.2526L137.097 64.1994L94.3815 82.1124Z" fill="#EDF4FF"></path>
  <path d="M83.6186 82.1124L89.0001 69.8387L46.9574 53.2526L40.9032 64.1994L83.6186 82.1124Z" fill="#E6EFFF"></path>
  <path d="M33.9352 65.4142C33.9352 74.4269 30.3737 76.7119 25.9804 76.7119C21.587 76.7119 18.0255 74.4269 18.0255 65.4142C18.0255 56.4016 21.587 44.0742 25.9804 44.0742C30.3737 44.0742 33.9352 56.4016 33.9352 65.4142Z" fill="#EAF2FF"></path>
  <path fill-rule="evenodd" clip-rule="evenodd" d="M25.9805 63.4727C26.5328 63.4727 26.9805 63.9204 26.9805 64.4727V85.1851C26.9805 85.7374 26.5328 86.1851 25.9805 86.1851C25.4282 86.1851 24.9805 85.7374 24.9805 85.1851V64.4727C24.9805 63.9204 25.4282 63.4727 25.9805 63.4727Z" fill="#B0CEFF"></path>
  <path d="M161.477 87.5998C161.477 94.4072 158.787 96.1331 155.468 96.1331C152.15 96.1331 149.46 94.4072 149.46 87.5998C149.46 80.7924 152.15 71.4813 155.468 71.4813C158.787 71.4813 161.477 80.7924 161.477 87.5998Z" fill="#EAF2FF"></path>
  <path fill-rule="evenodd" clip-rule="evenodd" d="M155.468 85.8886C156.02 85.8886 156.468 86.3363 156.468 86.8886V102.533C156.468 103.085 156.02 103.533 155.468 103.533C154.916 103.533 154.468 103.085 154.468 102.533V86.8886C154.468 86.3363 154.916 85.8886 155.468 85.8886Z" fill="#B0CEFF"></path>
  <path d="M49.707 108.199C49.707 113.383 47.6587 114.697 45.1319 114.697C42.6051 114.697 40.5568 113.383 40.5568 108.199C40.5568 103.016 42.6051 95.9256 45.1319 95.9256C47.6587 95.9256 49.707 103.016 49.707 108.199Z" fill="#EAF2FF"></path>
  <path fill-rule="evenodd" clip-rule="evenodd" d="M45.132 106.657C45.6843 106.657 46.132 107.105 46.132 107.657V119.57C46.132 120.122 45.6843 120.57 45.132 120.57C44.5797 120.57 44.132 120.122 44.132 119.57V107.657C44.132 107.105 44.5797 106.657 45.132 106.657Z" fill="#B0CEFF"></path>
  <path fill-rule="evenodd" clip-rule="evenodd" d="M105.502 8.58456C105.67 8.36545 105.984 8.32409 106.203 8.49216C106.775 8.93079 107.313 9.40057 107.814 9.89677C108.01 10.0911 108.011 10.4077 107.817 10.6039C107.623 10.8 107.306 10.8015 107.11 10.6071C106.639 10.1409 106.133 9.69884 105.594 9.2856C105.375 9.11753 105.334 8.80366 105.502 8.58456ZM109.734 13.0971C109.975 12.962 110.28 13.0478 110.415 13.2887C111.133 14.5708 111.635 15.9355 111.875 17.3321C111.921 17.6042 111.739 17.8627 111.466 17.9094C111.194 17.9561 110.936 17.7733 110.889 17.5012C110.67 16.2268 110.21 14.9696 109.542 13.7777C109.407 13.5368 109.493 13.2321 109.734 13.0971ZM111.373 21.0483C111.641 21.1138 111.805 21.3844 111.74 21.6527C111.411 22.9972 110.802 24.3121 109.881 25.5512C109.717 25.7729 109.403 25.8191 109.182 25.6544C108.96 25.4897 108.914 25.1765 109.079 24.9549C109.922 23.8199 110.472 22.6264 110.768 21.4153C110.834 21.147 111.105 20.9827 111.373 21.0483ZM106.921 27.8418C107.083 28.065 107.034 28.3777 106.811 28.5404C106.261 28.9417 105.664 29.3268 105.019 29.6937C104.454 30.0155 103.862 30.2619 103.249 30.4472C102.985 30.5271 102.705 30.3776 102.626 30.1133C102.546 29.849 102.695 29.5699 102.959 29.49C103.508 29.3243 104.03 29.1061 104.525 28.8246C105.139 28.4753 105.704 28.1104 106.222 27.7324C106.445 27.5697 106.758 27.6187 106.921 27.8418ZM88.151 29.6274C88.1515 29.3513 88.3757 29.1278 88.6518 29.1282C89.8844 29.1302 91.116 29.2195 92.3254 29.3373C92.6003 29.3641 92.8014 29.6086 92.7746 29.8834C92.7478 30.1583 92.5033 30.3594 92.2285 30.3326C91.0338 30.2162 89.8376 30.1302 88.6502 30.1282C88.3741 30.1278 88.1506 29.9036 88.151 29.6274ZM85.5277 29.8442C85.5796 30.1154 85.4017 30.3773 85.1305 30.4291C83.9993 30.6453 82.8926 30.994 81.822 31.5256C81.5747 31.6484 81.2746 31.5475 81.1518 31.3002C81.029 31.0528 81.13 30.7528 81.3773 30.63C82.5392 30.053 83.734 29.6779 84.9428 29.4469C85.214 29.3951 85.4759 29.5729 85.5277 29.8442ZM95.3921 30.1733C95.4202 29.8986 95.6656 29.6987 95.9403 29.7268C97.1818 29.8537 98.3754 29.947 99.5111 29.9409C99.7873 29.9394 100.012 30.1621 100.014 30.4382C100.015 30.7144 99.7926 30.9394 99.5165 30.9409C98.3266 30.9473 97.091 30.8496 95.8386 30.7216C95.5639 30.6935 95.364 30.448 95.3921 30.1733ZM78.9922 32.7953C79.1788 32.9989 79.165 33.3152 78.9614 33.5018C78.5463 33.8821 78.1381 34.3035 77.738 34.7699C77.335 35.2396 77.0117 35.7168 76.7595 36.199C76.6315 36.4437 76.3294 36.5383 76.0847 36.4104C75.84 36.2824 75.7454 35.9803 75.8734 35.7356C76.163 35.1819 76.5299 34.6422 76.979 34.1187C77.4043 33.6231 77.8402 33.1728 78.2858 32.7645C78.4894 32.5779 78.8057 32.5917 78.9922 32.7953ZM75.5127 39.0343C75.7886 39.0213 76.0227 39.2344 76.0357 39.5103C76.0873 40.6092 76.395 41.7413 76.9101 42.8866C77.0234 43.1385 76.911 43.4345 76.6592 43.5477C76.4074 43.661 76.1114 43.5487 75.9981 43.2968C75.4441 42.0652 75.0956 40.8092 75.0368 39.5572C75.0238 39.2814 75.2369 39.0473 75.5127 39.0343ZM78.0476 45.8571C78.2701 45.6936 78.583 45.7414 78.7465 45.964C79.4384 46.9058 80.2321 47.8328 81.0915 48.7312C81.2823 48.9307 81.2753 49.2472 81.0758 49.4381C80.8762 49.629 80.5597 49.622 80.3688 49.4224C79.4852 48.4987 78.6626 47.5387 77.9406 46.556C77.7772 46.3335 77.825 46.0206 78.0476 45.8571ZM83.0317 51.2939C83.2131 51.0857 83.5289 51.064 83.7371 51.2454C84.6714 52.0593 85.632 52.83 86.5829 53.5441C86.8037 53.7099 86.8482 54.0233 86.6824 54.2441C86.5166 54.465 86.2032 54.5095 85.9824 54.3437C85.0141 53.6166 84.0345 52.8307 83.0802 51.9993C82.872 51.8179 82.8503 51.5021 83.0317 51.2939ZM88.8923 55.7898C89.0426 55.5581 89.3523 55.4922 89.5839 55.6426C90.1216 55.9916 90.6407 56.3141 91.1332 56.6072C91.3705 56.7484 91.4483 57.0553 91.3071 57.2926C91.1659 57.5299 90.859 57.6078 90.6217 57.4665C90.1177 57.1666 89.5876 56.8372 89.0394 56.4814C88.8078 56.331 88.7419 56.0214 88.8923 55.7898Z" fill="#B0CEFF"></path>
  <path d="M103.27 5.92592L88.6244 0L101.017 11.1111L103.27 5.92592Z" fill="#CBDFFF"></path>
  <path d="M105.899 2.22222L88.6244 0L103.27 5.92592L105.899 2.22222Z" fill="#E7F0FF"></path>
  <path d="M103.27 11.1111L88.6244 0L103.27 5.92592V11.1111Z" fill="#F2F7FF"></path>
  <defs>
    <linearGradient id="paint0_linear_497_4011" x1="88.9999" y1="64.8147" x2="88.9999" y2="130" gradientUnits="userSpaceOnUse">
      <stop stop-color="#F0F6FF"></stop>
      <stop offset="1" stop-color="#FDFEFF"></stop>
    </linearGradient>
    <linearGradient id="paint1_linear_497_4011" x1="89.0001" y1="64.8149" x2="89.0001" y2="130" gradientUnits="userSpaceOnUse">
      <stop stop-color="#F0F6FF"></stop>
      <stop offset="1" stop-color="#FDFEFF"></stop>
    </linearGradient>
    <linearGradient id="paint2_linear_497_4011" x1="49.1942" y1="62.9631" x2="59.4463" y2="96.7465" gradientUnits="userSpaceOnUse">
      <stop stop-color="#7F9BC8" stop-opacity="0"></stop>
      <stop offset="1" stop-color="#7D9CCE" stop-opacity=".3"></stop>
    </linearGradient>
    <linearGradient id="paint3_linear_497_4011" x1="111.199" y1="45.9545" x2="99.3904" y2="83.2025" gradientUnits="userSpaceOnUse">
      <stop stop-color="#BDD6FF"></stop>
      <stop offset="1" stop-color="#93BBFB"></stop>
    </linearGradient>
    <linearGradient id="paint4_linear_497_4011" x1="70.5011" y1="44.2959" x2="86.2689" y2="82.599" gradientUnits="userSpaceOnUse">
      <stop stop-color="#D9E6FF"></stop>
      <stop offset="1" stop-color="#AFCDFD"></stop>
    </linearGradient>
    <filter id="filter0_f_497_4011" x="76.6638" y="43.2426" width="72.4332" height="53.5233" filterUnits="userSpaceOnUse" color-interpolation-filters="sRGB">
      <feFlood flood-opacity="0"></feFlood>
      <feBlend in="SourceGraphic" in2="BackgroundImageFix"></feBlend>
      <feGaussianBlur stdDeviation="6"></feGaussianBlur>
    </filter>
    <filter id="filter1_f_497_4011" x="29.5751" y="43.2426" width="72.4332" height="53.5233" filterUnits="userSpaceOnUse" color-interpolation-filters="sRGB">
      <feFlood flood-opacity="0"></feFlood>
      <feBlend in="SourceGraphic" in2="BackgroundImageFix"></feBlend>
      <feGaussianBlur stdDeviation="6"></feGaussianBlur>
    </filter>
  </defs>
</svg>