<?xml version="1.0" encoding="UTF-8"?>
<svg width="300px" height="110px" viewBox="0 0 300 110" version="1.1" xmlns="http://www.w3.org/2000/svg" xmlns:xlink="http://www.w3.org/1999/xlink">
    <title>考试未通过背景</title>
    <defs>
        <linearGradient x1="105.838904%" y1="59.7939756%" x2="0%" y2="43.3994444%" id="linearGradient-1">
            <stop stop-color="#FF7548" offset="0%"></stop>
            <stop stop-color="#E6805E" offset="100%"></stop>
        </linearGradient>
        <path d="M10,0 L290,0 C295.522847,-1.01453063e-15 300,4.4771525 300,10 L300,109 L300,109 L0,109 L0,10 C-6.76353751e-16,4.4771525 4.4771525,1.01453063e-15 10,0 Z" id="path-2"></path>
        <linearGradient x1="44.7105997%" y1="32.0763264%" x2="30.4812404%" y2="84.6391596%" id="linearGradient-4">
            <stop stop-color="#FFFFFF" stop-opacity="0" offset="0%"></stop>
            <stop stop-color="#FFFFFF" offset="100%"></stop>
        </linearGradient>
        <linearGradient x1="45.5282209%" y1="37.8765367%" x2="75.455529%" y2="86.0932937%" id="linearGradient-5">
            <stop stop-color="#FFFFFF" stop-opacity="0" offset="0%"></stop>
            <stop stop-color="#FFFFFF" offset="100%"></stop>
        </linearGradient>
        <path d="M26.5875438,51.095878 L7.80329714,60.9713408 C4.87022962,62.5133457 1.24246668,61.3856666 -0.299538163,58.4525991 C-0.913572582,57.2846362 -1.12546063,55.9468277 -0.90239957,54.6462819 L2.68507231,33.7297159 C3.01889994,31.7833515 2.37360903,29.7973503 0.959492515,28.4189274 L-14.2372822,13.6057331 C-16.6101837,11.2927258 -16.6587376,7.4940462 -14.3457303,5.12114473 C-13.4246787,4.17624292 -12.2178242,3.56131985 -10.912002,3.37157278 L10.0894242,0.319886926 C12.0436852,0.0359161858 13.7330787,-1.19150006 14.6070508,-2.9623609 L23.9991741,-21.9928813 C25.4657078,-24.9644033 29.0634629,-26.1844373 32.0349848,-24.7179035 C33.2182604,-24.1339221 34.1760256,-23.176157 34.760007,-21.9928813 L44.1521303,-2.9623609 C45.0261024,-1.19150006 46.7154959,0.0359161858 48.6697569,0.319886926 L69.6711831,3.37157278 C72.9504523,3.84807849 75.222541,6.8927356 74.7460353,10.1720048 C74.5562882,11.477827 73.9413652,12.6846814 72.9964633,13.6057331 L57.7996886,28.4189274 C56.3855721,29.7973503 55.7402812,31.7833515 56.0741088,33.7297159 L59.6615807,54.6462819 C60.2217467,57.9123006 58.0282198,61.0140362 54.7622011,61.5742022 C53.4616553,61.7972633 52.1238468,61.5853753 50.955884,60.9713408 L32.1716373,51.095878 C30.4236932,50.1769293 28.3354879,50.1769293 26.5875438,51.095878 Z" id="path-6"></path>
        <linearGradient x1="32.6871247%" y1="35.9537022%" x2="94.9506269%" y2="69.3763371%" id="linearGradient-7">
            <stop stop-color="#FFFFFF" stop-opacity="0" offset="0%"></stop>
            <stop stop-color="#FFFFFF" offset="100%"></stop>
        </linearGradient>
        <linearGradient x1="32.6871247%" y1="34.7801981%" x2="94.9506269%" y2="70.9951416%" id="linearGradient-8">
            <stop stop-color="#FF7548" stop-opacity="0" offset="0%"></stop>
            <stop stop-color="#FF7548" offset="100%"></stop>
        </linearGradient>
        <linearGradient x1="50%" y1="0%" x2="50%" y2="100%" id="linearGradient-9">
            <stop stop-color="#FFFFFF" offset="0%"></stop>
            <stop stop-color="#EF8765" offset="100%"></stop>
        </linearGradient>
        <linearGradient x1="50%" y1="0%" x2="50%" y2="100%" id="linearGradient-10">
            <stop stop-color="#BECDF2" offset="0%"></stop>
            <stop stop-color="#FFFFFF" offset="100%"></stop>
        </linearGradient>
        <linearGradient x1="50%" y1="0%" x2="50%" y2="100%" id="linearGradient-11">
            <stop stop-color="#FFFFFF" stop-opacity="0" offset="0%"></stop>
            <stop stop-color="#FFFFFF" offset="100%"></stop>
        </linearGradient>
        <linearGradient x1="50%" y1="0%" x2="50%" y2="99.8798077%" id="linearGradient-12">
            <stop stop-color="#FFFFFF" stop-opacity="0" offset="0%"></stop>
            <stop stop-color="#EB8B6C" offset="100%"></stop>
        </linearGradient>
    </defs>
    <g id="页面-1" stroke="none" stroke-width="1" fill="none" fill-rule="evenodd">
        <g id="结果页面-未通过考试" transform="translate(-38.000000, -181.000000)">
            <g id="考试未通过背景" transform="translate(38.000000, 181.500000)">
                <mask id="mask-3" fill="white">
                    <use xlink:href="#path-2"></use>
                </mask>
                <use id="蒙版" fill="url(#linearGradient-1)" xlink:href="#path-2"></use>
                <g id="星形" opacity="0.02" mask="url(#mask-3)" transform="translate(29.379591, 22.120409) rotate(-15.000000) translate(-29.379591, -22.120409) ">
                    <use fill="url(#linearGradient-4)" xlink:href="#path-6"></use>
                    <use fill="url(#linearGradient-5)" xlink:href="#path-6"></use>
                </g>
                <path d="M20.1310371,47.355059 L1.34679041,57.2305219 C-1.58627711,58.7725268 -5.21404004,57.6448477 -6.75604489,54.7117802 C-7.37007931,53.5438173 -7.58196735,52.2060088 -7.35890629,50.905463 L-3.77143441,29.988897 C-3.43760679,28.0425326 -4.08289769,26.0565314 -5.49701421,24.6781085 L-20.693789,9.86491415 C-23.0666904,7.55190687 -23.1152443,3.75322729 -20.802237,1.38032582 C-19.8811854,0.435424011 -18.6743309,-0.179499053 -17.3685087,-0.369246124 L3.63291748,-3.42093198 C5.58717844,-3.70490272 7.27657197,-4.93231896 8.15054404,-6.7031798 L17.5426674,-25.7337003 C19.0092011,-28.7052222 22.6069561,-29.9252562 25.5784781,-28.4587224 C26.7617537,-27.874741 27.7195188,-26.9169759 28.3035003,-25.7337003 L37.6956236,-6.7031798 C38.5695957,-4.93231896 40.2589892,-3.70490272 42.2132502,-3.42093198 L63.2146764,-0.369246124 C66.4939455,0.10725958 68.7660343,3.15191669 68.2895286,6.43118587 C68.0997815,7.73700805 67.4848584,8.94386252 66.5399566,9.86491415 L51.3431819,24.6781085 C49.9290653,26.0565314 49.2837744,28.0425326 49.6176021,29.988897 L53.2050739,50.905463 C53.76524,54.1714817 51.571713,57.2732173 48.3056944,57.8333833 C47.0051486,58.0564444 45.6673401,57.8445563 44.4993772,57.2305219 L25.7151306,47.355059 C23.9671864,46.4361104 21.8789812,46.4361104 20.1310371,47.355059 Z" id="星形" fill="url(#linearGradient-5)" opacity="0.08" mask="url(#mask-3)" transform="translate(22.923084, 18.379591) rotate(-15.000000) translate(-22.923084, -18.379591) "></path>
                <g id="编组-5" opacity="0.119999997" mask="url(#mask-3)">
                    <g transform="translate(120.000000, -3.500000)">
                        <path d="M62.2169079,0.00440212005 C66.8279652,13.1652032 79.0020813,90.4077478 170.15719,99.1843155 C151.850661,117.474637 101.704169,143.94726 45.8902535,143.94726 C35.9476893,135.783664 20.6509381,99.4617109 0,34.9814006 C9.26316466,31.4342653 30.002134,19.7752658 62.2169079,0.00440212005 Z" id="路径-2" fill="url(#linearGradient-7)"></path>
                        <path d="M54.9871462,0.00440212005 C59.5982035,13.1652032 74.9874711,91.0884913 160.474942,102.080987 C140.510964,119.241242 85.0785949,139.923647 48.8524215,139.923647 C41.9112959,135.062071 26.1533342,98.7416721 1.5785362,30.9624511 C4.9695023,30.0946155 22.7723723,19.7752658 54.9871462,0.00440212005 Z" id="路径-2备份" fill="url(#linearGradient-8)"></path>
                        <g id="编组-4" stroke-width="1" fill="none" transform="translate(149.873722, 58.000000) rotate(-315.000000) translate(-149.873722, -58.000000) translate(138.873722, -3.000000)">
                            <path d="M11.8944272,104.816303 L19.2763932,119.580235 C19.5233825,120.074213 19.3231581,120.674886 18.8291796,120.921875 C18.6903242,120.991303 18.5372111,121.027448 18.381966,121.027448 L3.61803399,121.027448 C3.06574924,121.027448 2.61803399,120.579733 2.61803399,120.027448 C2.61803399,119.872203 2.65417908,119.71909 2.7236068,119.580235 L10.1055728,104.816303 C10.3525621,104.322324 10.9532351,104.1221 11.4472136,104.369089 C11.640741,104.465853 11.7976635,104.622775 11.8944272,104.816303 Z" id="三角形" fill="url(#linearGradient-9)" transform="translate(11.000000, 112.027448) scale(1, -1) translate(-11.000000, -112.027448) "></path>
                            <path d="M2,65.0274482 L20,65.0274482 L20,102.218116 C20.0000419,102.693695 19.6651136,103.103487 19.1990502,103.198148 C16.4769862,103.751015 13.7480891,104.027448 11.0123591,104.027448 C8.27550864,104.027448 5.53865814,103.750788 2.80180764,103.197468 C2.33536803,103.103138 2,102.693182 2,102.217299 L2,65.0274482 L2,65.0274482 Z" id="矩形" fill="url(#linearGradient-10)"></path>
                            <path d="M1,2.13162821e-14 L21,2.13162821e-14 C21.5522847,2.09927844e-14 22,0.44771525 22,1 L22,57.6065061 C22.0000122,58.1011754 21.6383427,58.5215146 21.1492109,58.5953238 C17.7704261,59.1051766 14.3873558,59.360103 11,59.360103 C7.61264987,59.360103 4.22958526,59.1051774 0.85080615,58.5953263 C0.361670606,58.5215319 6.05797011e-17,58.1011914 0,57.6065206 L0,1 C-6.76353751e-17,0.44771525 0.44771525,2.14177351e-14 1,2.13162821e-14 Z" id="矩形备份-4" fill="url(#linearGradient-11)"></path>
                            <path d="M1.29356908,57.7428005 L20.7231562,57.7428005 C21.2754409,57.7428005 21.7231562,58.1905157 21.7231562,58.7428005 C21.7231562,58.8235637 21.7133722,58.9040296 21.6940182,58.9824396 L20.0529522,65.6309713 L20.0529522,65.6309713 C17.0570719,65.9662958 14.0570719,66.133958 11.0529522,66.133958 C8.04883245,66.133958 5.04883245,65.9662958 2.05295217,65.6309713 L0.325807191,58.9946673 C0.186704962,58.4601872 0.507222083,57.9141408 1.04170222,57.7750386 C1.1239469,57.7536338 1.20858467,57.7428005 1.29356908,57.7428005 Z" id="矩形备份-3" fill="url(#linearGradient-12)"></path>
                        </g>
                    </g>
                </g>
            </g>
        </g>
    </g>
</svg>