<svg width="300" height="109" viewBox="0 0 300 109" fill="none" xmlns="http://www.w3.org/2000/svg">
<path d="M10 0H290C295.523 0 300 4.47715 300 10V109H0V10C0 4.47715 4.47715 0 10 0Z" fill="url(#paint0_linear_983_8032)"/>
<mask id="mask0_983_8032" style="mask-type:alpha" maskUnits="userSpaceOnUse" x="0" y="0" width="300" height="109">
<path d="M10 0H290C295.523 0 300 4.47715 300 10V109H0V10C0 4.47715 4.47715 0 10 0Z" fill="white"/>
</mask>
<g mask="url(#mask0_983_8032)">
<g opacity="0.02">
<path d="M34.1821 50.8312L18.5939 65.2319C16.1598 67.4805 12.3638 67.3301 10.1152 64.8961C9.21981 63.9269 8.66889 62.6895 8.54775 61.3755L6.59938 40.2432C6.41807 38.2767 5.28075 36.5254 3.55806 35.56L-14.9548 25.1847C-17.8455 23.5647 -18.8756 19.908 -17.2556 17.0173C-16.6105 15.8662 -15.6039 14.9599 -14.3917 14.4386L5.10433 6.05537C6.9185 5.27527 8.23265 3.65243 8.61851 1.71571L12.7651 -19.0972C13.4126 -22.3471 16.572 -24.4567 19.8219 -23.8092C21.116 -23.5514 22.289 -22.8741 23.1593 -21.8823L37.1569 -5.93112C38.4594 -4.4468 40.4089 -3.69845 42.3701 -3.92996L63.4457 -6.41782C66.7366 -6.80629 69.7193 -4.45344 70.1077 -1.16258C70.2624 0.147858 69.9808 1.47274 69.3065 2.60697L58.4615 20.8486C57.4523 22.5461 57.343 24.6314 58.1692 26.4251L67.0481 45.7004C68.4344 48.7102 67.1185 52.2739 64.1087 53.6603C62.9102 54.2124 61.5631 54.354 60.276 54.0632L39.5759 49.3859C37.6497 48.9507 35.6326 49.4911 34.1821 50.8312Z" fill="url(#paint1_linear_983_8032)"/>
<path d="M34.1821 50.8312L18.5939 65.2319C16.1598 67.4805 12.3638 67.3301 10.1152 64.8961C9.21981 63.9269 8.66889 62.6895 8.54775 61.3755L6.59938 40.2432C6.41807 38.2767 5.28075 36.5254 3.55806 35.56L-14.9548 25.1847C-17.8455 23.5647 -18.8756 19.908 -17.2556 17.0173C-16.6105 15.8662 -15.6039 14.9599 -14.3917 14.4386L5.10433 6.05537C6.9185 5.27527 8.23265 3.65243 8.61851 1.71571L12.7651 -19.0972C13.4126 -22.3471 16.572 -24.4567 19.8219 -23.8092C21.116 -23.5514 22.289 -22.8741 23.1593 -21.8823L37.1569 -5.93112C38.4594 -4.4468 40.4089 -3.69845 42.3701 -3.92996L63.4457 -6.41782C66.7366 -6.80629 69.7193 -4.45344 70.1077 -1.16258C70.2624 0.147858 69.9808 1.47274 69.3065 2.60697L58.4615 20.8486C57.4523 22.5461 57.343 24.6314 58.1692 26.4251L67.0481 45.7004C68.4344 48.7102 67.1185 52.2739 64.1087 53.6603C62.9102 54.2124 61.5631 54.354 60.276 54.0632L39.5759 49.3859C37.6497 48.9507 35.6326 49.4911 34.1821 50.8312Z" fill="url(#paint2_linear_983_8032)"/>
</g>
</g>
<mask id="mask1_983_8032" style="mask-type:alpha" maskUnits="userSpaceOnUse" x="0" y="0" width="300" height="109">
<path d="M10 0H290C295.523 0 300 4.47715 300 10V109H0V10C0 4.47715 4.47715 0 10 0Z" fill="white"/>
</mask>
<g mask="url(#mask1_983_8032)">
<path opacity="0.08" d="M27.7256 47.0903L12.1373 61.491C9.70332 63.7396 5.9073 63.5893 3.65871 61.1553C2.7633 60.186 2.21239 58.9486 2.09124 57.6347L0.142867 36.5023C-0.0384361 34.5359 -1.17575 32.7846 -2.89845 31.8191L-21.4113 21.4439C-24.302 19.8238 -25.3321 16.1672 -23.7121 13.2765C-23.067 12.1254 -22.0604 11.219 -20.8482 10.6978L-1.35218 2.31452C0.461997 1.53443 1.77615 -0.0884133 2.16201 -2.02513L6.30864 -22.8381C6.95612 -26.0879 10.1155 -28.1975 13.3653 -27.5501C14.6594 -27.2922 15.8325 -26.615 16.7028 -25.6232L30.7004 -9.67196C32.0029 -8.18764 33.9524 -7.4393 35.9136 -7.6708L56.9892 -10.1587C60.2801 -10.5471 63.2628 -8.19428 63.6512 -4.90342C63.8059 -3.59299 63.5243 -2.2681 62.85 -1.13388L52.005 17.1078C50.9958 18.8052 50.8865 20.8906 51.7127 22.6842L60.5916 41.9596C61.9779 44.9693 60.6619 48.5331 57.6522 49.9195C56.4537 50.4715 55.1066 50.6131 53.8195 50.3223L33.1194 45.6451C31.1932 45.2098 29.1761 45.7503 27.7256 47.0903Z" fill="url(#paint3_linear_983_8032)"/>
</g>
<mask id="mask2_983_8032" style="mask-type:alpha" maskUnits="userSpaceOnUse" x="0" y="0" width="300" height="109">
<path d="M10 0H290C295.523 0 300 4.47715 300 10V109H0V10C0 4.47715 4.47715 0 10 0Z" fill="white"/>
</mask>
<g mask="url(#mask2_983_8032)">
<g opacity="0.12">
<path d="M182.217 -3.49561C186.828 9.6652 199.002 86.9077 290.157 95.6843C271.851 113.975 221.704 140.447 165.89 140.447C155.948 132.284 140.651 95.9617 120 31.4814C129.263 27.9343 150.002 16.2753 182.217 -3.49561Z" fill="url(#paint4_linear_983_8032)"/>
<path d="M174.987 -3.49561C179.598 9.6652 194.987 87.5885 280.475 98.581C260.511 115.741 205.079 136.424 168.852 136.424C161.911 131.562 146.153 95.2417 121.579 27.4624C124.97 26.5946 142.772 16.2753 174.987 -3.49561Z" fill="url(#paint5_linear_983_8032)"/>
<path d="M229.325 96.3133L244.985 91.0934C245.509 90.9188 245.792 90.3525 245.617 89.8285C245.568 89.6812 245.485 89.5474 245.376 89.4376L234.936 78.998C234.545 78.6074 233.912 78.6074 233.522 78.998C233.412 79.1077 233.329 79.2416 233.28 79.3888L228.06 95.0484C227.886 95.5723 228.169 96.1386 228.693 96.3133C228.898 96.3817 229.12 96.3817 229.325 96.3133Z" fill="url(#paint6_linear_983_8032)"/>
<path d="M260.662 50.9838L273.39 63.7117L247.092 90.0095C246.756 90.3457 246.229 90.3987 245.833 90.1361C243.517 88.6022 241.392 86.8681 239.457 84.9336C237.522 82.9984 235.783 80.8675 234.239 78.541C233.975 78.1445 234.028 77.6175 234.365 77.281L260.662 50.9838Z" fill="url(#paint7_linear_983_8032)"/>
<path d="M305.936 4.29536L320.078 18.4375C320.469 18.828 320.469 19.4612 320.078 19.8517L280.051 59.8786C279.702 60.2283 279.149 60.2698 278.751 59.9762C276.001 57.9475 273.429 55.7356 271.033 53.3404C268.638 50.9451 266.426 48.3727 264.398 45.623C264.104 45.225 264.145 44.672 264.495 44.3222L304.522 4.29536C304.912 3.90484 305.546 3.90484 305.936 4.29536Z" fill="url(#paint8_linear_983_8032)"/>
<path d="M265.313 45.3333L279.052 59.072C279.443 59.4626 279.443 60.0957 279.052 60.4863C278.995 60.5434 278.931 60.5933 278.862 60.6351L273.001 64.1759C270.645 62.2946 268.405 60.2919 266.281 58.1676C264.157 56.0434 262.154 53.8035 260.273 51.448L263.744 45.5341C264.023 45.0579 264.636 44.8984 265.113 45.178C265.186 45.221 265.253 45.2732 265.313 45.3333Z" fill="url(#paint9_linear_983_8032)"/>
</g>
</g>
<defs>
<linearGradient id="paint0_linear_983_8032" x1="317.517" y1="65.1754" x2="42.3885" y2="-52.1206" gradientUnits="userSpaceOnUse">
<stop stop-color="#E1E4E8"/>
<stop offset="1" stop-color="#CCCCCC"/>
</linearGradient>
<linearGradient id="paint1_linear_983_8032" x1="19.6773" y1="4.47774" x2="20.0652" y2="51.9872" gradientUnits="userSpaceOnUse">
<stop stop-color="white" stop-opacity="0"/>
<stop offset="1" stop-color="#101010"/>
</linearGradient>
<linearGradient id="paint2_linear_983_8032" x1="21.7009" y1="9.15974" x2="57.4667" y2="44.0326" gradientUnits="userSpaceOnUse">
<stop stop-color="white" stop-opacity="0"/>
<stop offset="1" stop-color="#63676B"/>
</linearGradient>
<linearGradient id="paint3_linear_983_8032" x1="15.2444" y1="5.4189" x2="51.0102" y2="40.2918" gradientUnits="userSpaceOnUse">
<stop stop-color="white" stop-opacity="0"/>
<stop offset="1" stop-color="#4D5569"/>
</linearGradient>
<linearGradient id="paint4_linear_983_8032" x1="175.619" y1="48.2572" x2="272.916" y2="109.997" gradientUnits="userSpaceOnUse">
<stop stop-color="white" stop-opacity="0"/>
<stop offset="0.348958" stop-color="#DCDCDD" stop-opacity="0.348958"/>
<stop offset="1" stop-color="#9A9C9E"/>
</linearGradient>
<linearGradient id="paint5_linear_983_8032" x1="173.517" y1="45.1686" x2="265.702" y2="106.059" gradientUnits="userSpaceOnUse">
<stop stop-color="#BBC7D8" stop-opacity="0"/>
<stop offset="1" stop-color="#BBC7D8"/>
</linearGradient>
<linearGradient id="paint6_linear_983_8032" x1="228.302" y1="96.0719" x2="240.156" y2="84.2179" gradientUnits="userSpaceOnUse">
<stop stop-color="white"/>
<stop offset="1" stop-color="#666E82"/>
</linearGradient>
<linearGradient id="paint7_linear_983_8032" x1="267.026" y1="57.3477" x2="239.449" y2="84.9249" gradientUnits="userSpaceOnUse">
<stop stop-color="#666E82"/>
<stop offset="1" stop-color="#E2E4E8"/>
</linearGradient>
<linearGradient id="paint8_linear_983_8032" x1="313.007" y1="11.3664" x2="271.033" y2="53.3404" gradientUnits="userSpaceOnUse">
<stop stop-color="white" stop-opacity="0"/>
<stop offset="1" stop-color="#666E82"/>
</linearGradient>
<linearGradient id="paint9_linear_983_8032" x1="272.183" y1="52.2026" x2="266.256" y2="58.1289" gradientUnits="userSpaceOnUse">
<stop stop-color="white" stop-opacity="0"/>
<stop offset="1" stop-color="#37393C"/>
</linearGradient>
</defs>
</svg>
