<?xml version="1.0" encoding="UTF-8"?>
<svg width="300px" height="109px" viewBox="0 0 300 109" version="1.1" xmlns="http://www.w3.org/2000/svg" xmlns:xlink="http://www.w3.org/1999/xlink">
    <title>改蓝色</title>
    <defs>
        <linearGradient x1="105.838904%" y1="59.7939756%" x2="0%" y2="43.3994444%" id="linearGradient-1">
            <stop stop-color="#3883F1" offset="0%"></stop>
            <stop stop-color="#3464E0" offset="100%"></stop>
        </linearGradient>
        <path d="M10,0 L290,0 C295.522847,0 300,4.4771525 300,10 L300,109 L300,109 L0,109 L0,10 C0,4.4771525 4.4771525,0 10,0 Z" id="path-2"></path>
        <linearGradient x1="44.7105997%" y1="32.0763264%" x2="30.4812404%" y2="84.6391596%" id="linearGradient-4">
            <stop stop-color="#FFFFFF" stop-opacity="0" offset="0%"></stop>
            <stop stop-color="#FFFFFF" offset="100%"></stop>
        </linearGradient>
        <linearGradient x1="45.5282209%" y1="37.8765367%" x2="75.455529%" y2="86.0932937%" id="linearGradient-5">
            <stop stop-color="#FFFFFF" stop-opacity="0" offset="0%"></stop>
            <stop stop-color="#FFFFFF" offset="100%"></stop>
        </linearGradient>
        <path d="M10,0 L290,0 C295.522847,0 300,4.4771525 300,10 L300,109 L300,109 L0,109 L0,10 C0,4.4771525 4.4771525,0 10,0 Z" id="path-6"></path>
        <path d="M10,0 L290,0 C295.522847,0 300,4.4771525 300,10 L300,109 L300,109 L0,109 L0,10 C0,4.4771525 4.4771525,0 10,0 Z" id="path-8"></path>
        <linearGradient x1="32.6871247%" y1="35.9537022%" x2="94.9506269%" y2="69.3763371%" id="linearGradient-10">
            <stop stop-color="#FFFFFF" stop-opacity="0" offset="0%"></stop>
            <stop stop-color="#FFFFFF" offset="100%"></stop>
        </linearGradient>
        <linearGradient x1="32.6871247%" y1="34.7801981%" x2="94.9506269%" y2="70.9951416%" id="linearGradient-11">
            <stop stop-color="#3883F1" stop-opacity="0" offset="0%"></stop>
            <stop stop-color="#3883F1" offset="100%"></stop>
        </linearGradient>
        <linearGradient x1="50%" y1="0%" x2="50%" y2="100%" id="linearGradient-12">
            <stop stop-color="#FFFFFF" offset="0%"></stop>
            <stop stop-color="#3883F1" offset="100%"></stop>
        </linearGradient>
        <linearGradient x1="50%" y1="0%" x2="50%" y2="100%" id="linearGradient-13">
            <stop stop-color="#BECDF2" offset="0%"></stop>
            <stop stop-color="#FFFFFF" offset="100%"></stop>
        </linearGradient>
        <linearGradient x1="50%" y1="0%" x2="50%" y2="100%" id="linearGradient-14">
            <stop stop-color="#FFFFFF" stop-opacity="0" offset="0%"></stop>
            <stop stop-color="#FFFFFF" offset="100%"></stop>
        </linearGradient>
        <linearGradient x1="50%" y1="0%" x2="50%" y2="99.8798077%" id="linearGradient-15">
            <stop stop-color="#FFFFFF" stop-opacity="0" offset="0%"></stop>
            <stop stop-color="#3883F1" offset="100%"></stop>
        </linearGradient>
    </defs>
    <g id="Page-1" stroke="none" stroke-width="1" fill="none" fill-rule="evenodd">
        <g id="改蓝色">
            <g id="蒙版" fill="url(#linearGradient-1)" fill-rule="nonzero">
                <path d="M10,0 L290,0 C295.522847,0 300,4.4771525 300,10 L300,109 L300,109 L0,109 L0,10 C0,4.4771525 4.4771525,0 10,0 Z" id="path-2"></path>
            </g>
            <g id="星形-Clipped">
                <mask id="mask-3" fill="white">
                    <use xlink:href="#path-2"></use>
                </mask>
                <g id="path-2"></g>
                <g id="星形" opacity="0.02" mask="url(#mask-3)">
                    <g transform="translate(28.355318, 18.296268) rotate(-15.000000) translate(-28.355318, -18.296268) translate(-17.073877, -25.204028)" id="path-6-link">
                        <g>
                            <path d="M42.636759,76.4347033 L23.8525123,86.3101661 C20.9194448,87.852171 17.2916819,86.7244919 15.749677,83.7914244 C15.1356426,82.6234615 14.9237546,81.285653 15.1468156,79.9851072 L18.7342875,59.0685412 C19.0681151,57.1221768 18.4228242,55.1361756 17.0087077,53.7577527 L1.81193299,38.9445584 C-0.560968512,36.6315511 -0.609522412,32.8328715 1.70348489,30.45997 C2.62453649,29.5150682 3.83139099,28.9001451 5.13721319,28.710398 L26.1386394,25.6587122 C28.0929004,25.3747414 29.7822939,24.1473252 30.656266,22.3764644 L40.0483893,3.34594395 C41.514923,0.374421954 45.1126781,-0.845612046 48.0842,0.620921754 C49.2674756,1.20490315 50.2252408,2.16266825 50.8092222,3.34594395 L60.2013455,22.3764644 C61.0753176,24.1473252 62.7647111,25.3747414 64.7189721,25.6587122 L85.7203983,28.710398 C88.9996675,29.1869037 91.2717562,32.2315609 90.7952505,35.5108301 C90.6055034,36.8166523 89.9905804,38.0235067 89.0456785,38.9445584 L73.8489038,53.7577527 C72.4347873,55.1361756 71.7894964,57.1221768 72.123324,59.0685412 L75.7107959,79.9851072 C76.2709619,83.2511259 74.077435,86.3528615 70.8114163,86.9130275 C69.5108705,87.1360886 68.173062,86.9242006 67.0050992,86.3101661 L48.2208525,76.4347033 C46.4729084,75.5157546 44.3847031,75.5157546 42.636759,76.4347033 Z" id="path-6" fill="url(#linearGradient-4)" fill-rule="nonzero"></path>
                        </g>
                        <g>
                            <path d="M42.636759,76.4347033 L23.8525123,86.3101661 C20.9194448,87.852171 17.2916819,86.7244919 15.749677,83.7914244 C15.1356426,82.6234615 14.9237546,81.285653 15.1468156,79.9851072 L18.7342875,59.0685412 C19.0681151,57.1221768 18.4228242,55.1361756 17.0087077,53.7577527 L1.81193299,38.9445584 C-0.560968512,36.6315511 -0.609522412,32.8328715 1.70348489,30.45997 C2.62453649,29.5150682 3.83139099,28.9001451 5.13721319,28.710398 L26.1386394,25.6587122 C28.0929004,25.3747414 29.7822939,24.1473252 30.656266,22.3764644 L40.0483893,3.34594395 C41.514923,0.374421954 45.1126781,-0.845612046 48.0842,0.620921754 C49.2674756,1.20490315 50.2252408,2.16266825 50.8092222,3.34594395 L60.2013455,22.3764644 C61.0753176,24.1473252 62.7647111,25.3747414 64.7189721,25.6587122 L85.7203983,28.710398 C88.9996675,29.1869037 91.2717562,32.2315609 90.7952505,35.5108301 C90.6055034,36.8166523 89.9905804,38.0235067 89.0456785,38.9445584 L73.8489038,53.7577527 C72.4347873,55.1361756 71.7894964,57.1221768 72.123324,59.0685412 L75.7107959,79.9851072 C76.2709619,83.2511259 74.077435,86.3528615 70.8114163,86.9130275 C69.5108705,87.1360886 68.173062,86.9242006 67.0050992,86.3101661 L48.2208525,76.4347033 C46.4729084,75.5157546 44.3847031,75.5157546 42.636759,76.4347033 Z" id="path-6" fill="url(#linearGradient-5)" fill-rule="nonzero"></path>
                        </g>
                    </g>
                </g>
            </g>
            <g id="星形-Clipped">
                <mask id="mask-7" fill="white">
                    <use xlink:href="#path-6"></use>
                </mask>
                <g id="path-2"></g>
                <path d="M19.106375,47.4898558 L0.322128342,57.3653187 C-2.61093918,58.9073236 -6.23870211,57.7796445 -7.78070696,54.846577 C-8.39474138,53.6786141 -8.60662942,52.3408056 -8.38356836,51.0402598 L-4.79609648,30.1236938 C-4.46226886,28.1773294 -5.10755976,26.1913282 -6.52167628,24.8129053 L-21.7184511,9.99971094 C-24.0913525,7.68670366 -24.1399064,3.88802408 -21.8268991,1.51512261 C-20.9058475,0.570220796 -19.698993,-0.0447022679 -18.3931708,-0.234449339 L2.60825541,-3.28613519 C4.56251637,-3.57010593 6.2519099,-4.79752217 7.12588197,-6.56838301 L16.5180053,-25.5989035 C17.984539,-28.5704254 21.582294,-29.7904594 24.553816,-28.3239256 C25.7370916,-27.7399442 26.6948567,-26.7821791 27.2788382,-25.5989035 L36.6709615,-6.56838301 C37.5449336,-4.79752217 39.2343271,-3.57010593 41.1885881,-3.28613519 L62.1900143,-0.234449339 C65.4692834,0.242056365 67.7413722,3.28671348 67.2648665,6.56598266 C67.0751194,7.87180484 66.4601963,9.07865931 65.5152945,9.99971094 L50.3185198,24.8129053 C48.9044032,26.1913282 48.2591123,28.1773294 48.59294,30.1236938 L52.1804118,51.0402598 C52.7405779,54.3062785 50.5470509,57.4080141 47.2810323,57.9681801 C45.9804865,58.1912412 44.642678,57.9793531 43.4747151,57.3653187 L24.6904685,47.4898558 C22.9425243,46.5709072 20.8543191,46.5709072 19.106375,47.4898558 Z" id="星形" fill="url(#linearGradient-5)" fill-rule="nonzero" opacity="0.08" mask="url(#mask-7)" transform="translate(21.898811, 14.555449) rotate(-15.000000) translate(-21.898811, -14.555449) "></path>
            </g>
            <g id="编组-5-Clipped">
                <mask id="mask-9" fill="white">
                    <use xlink:href="#path-8"></use>
                </mask>
                <g id="path-2"></g>
                <g id="编组-5" opacity="0.119999997" mask="url(#mask-9)">
                    <g transform="translate(120.000000, -3.495598)" id="Group">
                        <path d="M62.2169079,-2.6229019e-15 C66.8279652,13.1608011 79.0020813,90.4033457 170.15719,99.1799134 C151.850661,117.470235 101.704169,143.942858 45.8902535,143.942858 C35.9476893,135.779262 20.6509381,99.4573088 0,34.9769985 C9.26316466,31.4298632 30.002134,19.7708637 62.2169079,-2.6229019e-15 Z" id="路径-2" fill="url(#linearGradient-10)" fill-rule="nonzero"></path>
                        <path d="M54.9871462,-2.6229019e-15 C59.5982035,13.1608011 74.9874711,91.0840892 160.474942,102.076585 C140.510964,119.23684 85.0785949,139.919245 48.8524215,139.919245 C41.9112959,135.057669 26.1533342,98.73727 1.5785362,30.958049 C4.9695023,30.0902134 22.7723723,19.7708637 54.9871462,-2.6229019e-15 Z" id="路径-2备份" fill="url(#linearGradient-11)" fill-rule="nonzero"></path>
                        <g id="编组-4" transform="translate(150.654510, 57.214810) rotate(45.000000) translate(-150.654510, -57.214810) translate(139.654510, -2.680989)" fill-rule="nonzero">
                            <path d="M11.8944272,103.580454 L19.2763932,118.344386 C19.5233825,118.838364 19.3231581,119.439037 18.8291796,119.686026 C18.6903242,119.755454 18.5372111,119.791599 18.381966,119.791599 L3.61803399,119.791599 C3.06574924,119.791599 2.61803399,119.343884 2.61803399,118.791599 C2.61803399,118.636354 2.65417908,118.483241 2.7236068,118.344386 L10.1055728,103.580454 C10.3525621,103.086475 10.9532351,102.886251 11.4472136,103.13324 C11.640741,103.230004 11.7976635,103.386926 11.8944272,103.580454 Z" id="三角形" fill="url(#linearGradient-12)" transform="translate(11.000110, 111.409523) scale(-1, 1) rotate(-180.000000) translate(-11.000110, -111.409523) "></path>
                            <path d="M2,65.0274482 L20,65.0274482 L20,102.218116 C20,102.693695 19.6651136,103.103487 19.1990502,103.198148 C16.4769862,103.751015 13.7480891,104.027448 11.0123591,104.027448 C8.27550864,104.027448 5.53865814,103.750788 2.80180764,103.197468 C2.33536803,103.103138 2,102.693182 2,102.217299 L2,65.0274482 L2,65.0274482 Z" id="矩形" fill="url(#linearGradient-13)"></path>
                            <path d="M1,2.71969958e-23 L21,2.71969958e-23 C21.5522847,2.71969958e-23 22,0.44771525 22,1 L22,57.6065061 C22,58.1011754 21.6383427,58.5215146 21.1492109,58.5953238 C17.7704261,59.1051766 14.3873558,59.360103 11,59.360103 C7.61264987,59.360103 4.22958526,59.1051774 0.85080615,58.5953263 C0.361670606,58.5215319 0,58.1011914 0,57.6065206 L0,1 C0,0.44771525 0.44771525,2.71969958e-23 1,2.71969958e-23 Z" id="矩形备份-4" fill="url(#linearGradient-14)"></path>
                            <path d="M1.29356908,57.7428005 L20.7231562,57.7428005 C21.2754409,57.7428005 21.7231562,58.1905157 21.7231562,58.7428005 C21.7231562,58.8235637 21.7133722,58.9040296 21.6940182,58.9824396 L20.0529522,65.6309713 L20.0529522,65.6309713 C17.0570719,65.9662958 14.0570719,66.133958 11.0529522,66.133958 C8.04883245,66.133958 5.04883245,65.9662958 2.05295217,65.6309713 L0.325807191,58.9946673 C0.186704962,58.4601872 0.507222083,57.9141408 1.04170222,57.7750386 C1.1239469,57.7536338 1.20858467,57.7428005 1.29356908,57.7428005 Z" id="矩形备份-3" fill="url(#linearGradient-15)"></path>
                        </g>
                    </g>
                </g>
            </g>
        </g>
    </g>
</svg>