<?xml version="1.0" encoding="UTF-8"?>
<svg width="16px" height="16px" viewBox="0 0 16 16" version="1.1" xmlns="http://www.w3.org/2000/svg" xmlns:xlink="http://www.w3.org/1999/xlink">
    <title>7.图标/图片</title>
    <defs>
        <filter id="filter-1">
            <feColorMatrix in="SourceGraphic" type="matrix" values="0 0 0 0 0.200000 0 0 0 0 0.200000 0 0 0 0 0.200000 0 0 0 1.000000 0"></feColorMatrix>
        </filter>
    </defs>
    <g id="7.图标/图片" stroke="none" stroke-width="1" fill="none" fill-rule="evenodd">
        <g filter="url(#filter-1)" id="编组">
            <g transform="translate(2.000000, 2.000000)">
                <path d="M8.0734375,3.4 L4.4359375,3.4 C4.15634335,3.4 3.92968752,3.17334415 3.92968752,2.89375 C3.92968752,2.61415585 4.15634335,2.3875 4.4359375,2.3875 L8.0734375,2.3875 C8.35303165,2.3875 8.5796875,2.61415585 8.5796875,2.89375 C8.5796875,3.17334415 8.35303165,3.4 8.0734375,3.4 L8.0734375,3.4 Z M7.1203125,5.5875 L4.4359375,5.5875 C4.15634335,5.5875 3.9296875,5.36084415 3.9296875,5.08125 C3.9296875,4.80165585 4.15634335,4.575 4.4359375,4.575 L7.1203125,4.575 C7.39990665,4.575 7.6265625,4.80165585 7.6265625,5.08125 C7.6265625,5.36084415 7.39990665,5.5875 7.1203125,5.5875 L7.1203125,5.5875 Z" id="形状" fill="#3464E0" fill-rule="nonzero"></path>
                <path d="M10.0234375,0.009375 L2.4859375,0.009375 C1.92866416,0.00935125768 1.47545656,0.458375404 1.4703125,1.015625 L1.4703125,7.371875 C0.6265625,7.58125 0.0078125,8.240625 0.0078125,9.01875 L0.0078125,9.625 C0.0078125,10.5625 0.9171875,11.340625 2.0359375,11.340625 L7.0359375,11.340625 C9.4578125,11.340625 11.0234375,9.465625 11.0234375,6.590625 L11.0234375,1.015625 C11.0217154,0.455931576 10.5675086,0.003125 10.0078125,0.003125 L10.0234375,0.009375 Z M2.0359375,10.321875 C1.4984375,10.321875 1.0234375,10.009375 1.0234375,9.621875 L1.0234375,9.01875 C1.0234375,8.6375 1.4859375,8.31875 2.0359375,8.31875 L5.3390625,8.31875 C4.99761764,8.95919506 5.05223827,9.73844938 5.4796875,10.325 L2.0359375,10.321875 Z M7.0359375,10.103125 C6.542333,10.103125 6.1421875,9.7029795 6.1421875,9.209375 C6.1421875,8.7157705 6.542333,8.315625 7.0359375,8.315625 C7.529542,8.315625 7.9296875,8.7157705 7.9296875,9.209375 C7.9296875,9.44641224 7.83552482,9.67374105 7.66791419,9.84135169 C7.50030355,10.0089623 7.27297474,10.103125 7.0359375,10.103125 L7.0359375,10.103125 Z M10.0328125,6.5875 C10.0328125,7.75625 9.7046875,8.975 8.8796875,9.690625 C8.92206763,9.5347424 8.9441253,9.37403653 8.9453125,9.2125 C8.943592,8.15869478 8.08974272,7.3048455 7.0359375,7.303125 L2.4859375,7.303125 L2.4859375,1.015625 L10.0234375,1.015625 L10.0328125,6.5875 Z" id="形状" fill="#3464E0" fill-rule="nonzero"></path>
            </g>
        </g>
    </g>
</svg>