<svg xmlns="http://www.w3.org/2000/svg" width="86" height="24" viewBox="0 0 86 24">
  <rect opacity="0.2" width="86" height="24" rx="3" fill="#F81D22"></rect>
  <path fill-rule="evenodd" clip-rule="evenodd" d="M14 6C17.3138 6 20 8.68615 20 12C20 15.3138 17.3138 18 14 18C10.6861 18 7.99999 15.3138 7.99999 12C7.99999 8.68615 10.6861 6 14 6ZM14 6.92308C11.1957 6.92308 8.92307 9.19569 8.92307 12C8.92307 14.8034 11.1966 17.0769 14 17.0769C16.8043 17.0769 19.0769 14.8043 19.0769 12C19.0769 9.19569 16.8043 6.92308 14 6.92308ZM14.4615 13.3846V8.76923H13.5385V13.3846H14.4615ZM14.4615 14.3077V15.2308H13.5385V14.3077H14.4615Z" fill="#F81D22"></path>
  <path d="M26.156 6.976V7.914H29.894V9.426H25.148V10.392H30.776C28.984 11.512 26.912 12.436 24.546 13.15L24.952 14.06C26.128 13.696 27.248 13.276 28.326 12.8L27.696 15.04H34.584C34.5 16.034 34.388 16.664 34.22 16.916C34.024 17.154 33.576 17.28 32.848 17.28C32.302 17.28 31.686 17.252 30.986 17.21L31.308 18.092C31.812 18.148 32.4 18.176 33.058 18.176C34.01 18.176 34.64 17.994 34.962 17.63C35.284 17.252 35.494 16.09 35.592 14.158H28.886L29.348 12.716H36.292V11.806H30.3C31.056 11.372 31.784 10.896 32.484 10.392H37.118V9.426H33.688C34.696 8.53 35.606 7.536 36.418 6.444L35.676 5.884C35.2 6.528 34.654 7.158 34.066 7.76V6.976H30.902V5.534H29.894V6.976H26.156ZM32.162 9.426H30.902V7.914H33.912C33.38 8.446 32.792 8.95 32.162 9.426ZM44.58 12.198V16.188C44.132 16.272 43.67 16.342 43.208 16.398L43.46 17.35C44.86 17.112 46.176 16.818 47.394 16.468V15.53C46.806 15.698 46.19 15.852 45.574 15.992V12.198H46.89V11.26H43.264V12.198H44.58ZM49.886 18.19C50.53 18.19 51.076 17.182 51.538 15.166L50.74 14.522C50.46 16.188 50.166 17.042 49.886 17.098C49.466 17.042 49.102 16.23 48.794 14.634C48.57 13.318 48.416 11.47 48.346 9.062H51.118V8.082H48.332C48.304 7.284 48.304 6.43 48.304 5.52H47.324C47.324 6.416 47.324 7.27 47.352 8.082H42.942V9.062H47.38C47.436 10.896 47.534 12.436 47.688 13.668C47.884 15.124 48.192 16.258 48.612 17.098C48.976 17.826 49.41 18.19 49.886 18.19ZM49.508 5.506L48.794 5.94C49.382 6.612 49.858 7.214 50.208 7.76L50.908 7.27C50.572 6.766 50.11 6.178 49.508 5.506ZM40.268 5.702L39.568 6.388C40.52 7.144 41.276 7.872 41.836 8.558L42.522 7.858C41.906 7.13 41.164 6.416 40.268 5.702ZM38.588 9.846V10.812H40.548V16.426C40.548 16.636 40.436 16.832 40.24 17L40.632 17.896C41.5 17.252 42.312 16.51 43.082 15.67L42.816 14.606C42.368 15.096 41.948 15.544 41.528 15.95V9.846H38.588ZM58.776 8.53H59.532V18.414H60.554V15.152H64.726V14.186H60.554V11.82H64.642V10.84H60.554V8.53H65.258V7.536H59.21C59.434 6.962 59.658 6.346 59.882 5.702L58.874 5.478C58.09 7.844 57.068 9.762 55.836 11.218L56.55 12.072C57.39 11.064 58.132 9.888 58.776 8.53ZM54.296 10.546V18.414H55.332V9.034C55.892 8.082 56.368 7.06 56.746 5.968L55.794 5.52C55.108 7.648 54.002 9.524 52.49 11.162L52.826 12.226C53.358 11.694 53.848 11.134 54.296 10.546ZM74.666 8.894C74.946 9.58 75.324 10.196 75.772 10.728C75.212 11.232 74.526 11.61 73.728 11.876L74.19 12.646C75.03 12.352 75.758 11.932 76.388 11.372C77.018 11.96 77.802 12.394 78.74 12.702L79.23 11.89C78.362 11.652 77.62 11.274 76.976 10.742C77.606 9.972 78.082 8.992 78.39 7.816H79.076V6.962H75.772C75.94 6.542 76.08 6.108 76.192 5.646L75.282 5.534C74.946 6.92 74.288 8.082 73.322 9.034L73.882 9.776C74.162 9.496 74.414 9.202 74.666 8.894ZM76.346 10.126C75.87 9.58 75.478 8.922 75.184 8.138C75.24 8.026 75.31 7.928 75.366 7.816H77.48C77.228 8.712 76.85 9.482 76.346 10.126ZM66.616 14.13V15.04H70.424V15.068C70.242 16.328 69.248 17.154 67.456 17.546L67.96 18.386C70.004 17.84 71.138 16.734 71.39 15.068V15.04H74.932V18.358H75.912V15.04H79.412V14.13H75.912V12.828H74.932V14.13H71.446C71.446 13.794 71.46 13.36 71.46 12.828H70.466C70.466 13.318 70.452 13.752 70.452 14.13H66.616ZM72.202 12.576C72.902 12.576 73.266 12.24 73.266 11.596V7.522H70.746V5.534H69.878V7.522H67.246V12.562H68.086V8.362H69.934V12.45H70.662V8.362H72.426V11.414C72.426 11.68 72.258 11.82 71.95 11.82L71.376 11.792L71.586 12.576H72.202ZM68.884 9.02C68.8 9.888 68.618 10.644 68.324 11.302L68.968 11.512C69.234 10.812 69.402 10 69.486 9.104L68.884 9.02ZM71.558 8.908L71.012 9.09C71.236 9.72 71.432 10.392 71.586 11.092L72.202 10.938C72.006 10.182 71.796 9.496 71.558 8.908ZM68.296 5.73L67.568 6.08C67.904 6.472 68.212 6.934 68.506 7.438L69.164 7.102C68.898 6.598 68.604 6.15 68.296 5.73ZM72.342 5.702C72.104 6.178 71.796 6.654 71.404 7.13L72.076 7.48C72.496 7.032 72.832 6.556 73.098 6.066L72.342 5.702Z" fill="#F81D22"></path>
</svg>