<svg xmlns="http://www.w3.org/2000/svg" width="72" height="24" viewBox="0 0 72 24">
  <rect opacity="0.2" width="72" height="24" rx="3" fill="#1890FF"></rect>
  <path fill-rule="evenodd" clip-rule="evenodd" d="M14 6.5C10.9624 6.5 8.5 8.96243 8.5 12C8.5 15.0376 10.9624 17.5 14 17.5C17.0376 17.5 19.5 15.0376 19.5 12C19.5 8.96243 17.0376 6.5 14 6.5ZM7.5 12C7.5 8.41015 10.4101 5.5 14 5.5C17.5898 5.5 20.5 8.41015 20.5 12C20.5 15.5899 17.5898 18.5 14 18.5C10.4101 18.5 7.5 15.5899 7.5 12Z" fill="#1890FF"></path>
  <path fill-rule="evenodd" clip-rule="evenodd" d="M13.5 8.66669H14.5V11.5H17.1667V12.5H13.5V8.66669Z" fill="#1890FF"></path>
  <path d="M28.76 11.68C28.312 11.876 27.864 12.058 27.402 12.226V9.118H28.788V8.152H27.402V5.562H26.422V8.152H24.84V9.118H26.422V12.548C25.848 12.716 25.26 12.856 24.672 12.982L24.91 13.948C25.414 13.808 25.918 13.668 26.422 13.514V16.846C26.422 17.21 26.254 17.392 25.918 17.392C25.568 17.392 25.204 17.364 24.84 17.322L25.05 18.316H26.268C27.024 18.316 27.402 17.91 27.402 17.098V13.178C27.85 13.01 28.312 12.828 28.76 12.632V11.68ZM30.44 10.714H32.414V9.734H30.44V5.702H29.446V16.678C29.446 16.986 29.292 17.196 28.984 17.294L29.236 18.232C30.44 17.952 31.518 17.616 32.456 17.224L32.274 16.286C31.714 16.552 31.112 16.776 30.44 16.958V10.714ZM35.48 18.204C36.04 18.204 36.432 18.05 36.684 17.77C36.978 17.434 37.174 16.51 37.272 14.97L36.348 14.676C36.292 15.936 36.18 16.692 35.998 16.944C35.858 17.14 35.634 17.252 35.312 17.252H34.626C34.262 17.252 34.08 17.056 34.08 16.678V10.84C35.046 10.532 36.054 10.07 37.118 9.482L36.53 8.656C35.746 9.16 34.92 9.552 34.08 9.832V5.604H33.086V16.888C33.086 17.756 33.492 18.204 34.304 18.204H35.48ZM49.424 18.316C50.264 18.316 50.684 17.896 50.684 17.084V6.22H44.188V7.144H49.704V16.79C49.704 17.21 49.536 17.42 49.214 17.42L48.262 17.392L48.5 18.316H49.424ZM43.418 8.152L42.564 8.558C42.97 9.062 43.348 9.636 43.712 10.294L44.524 9.888C44.174 9.244 43.81 8.67 43.418 8.152ZM46.428 7.998C46.12 8.852 45.77 9.65 45.378 10.406H42.116V14.172H43.53C43.376 15.446 42.522 16.37 40.968 16.93L41.486 17.756C43.25 17 44.23 15.81 44.398 14.172H45.462V16.426C45.462 17.126 45.77 17.49 46.4 17.49H47.408C47.828 17.49 48.136 17.392 48.332 17.224C48.57 17.014 48.724 16.426 48.808 15.46L47.94 15.18C47.898 15.852 47.814 16.272 47.702 16.426C47.604 16.538 47.45 16.594 47.24 16.594H46.68C46.456 16.594 46.344 16.468 46.344 16.23V14.172H47.828V10.406H46.344C46.722 9.79 47.072 9.104 47.38 8.32L46.428 7.998ZM46.904 13.332H43.026V11.246H46.904V13.332ZM39.274 7.802V18.386H40.254V7.802H39.274ZM41.332 5.464L40.408 5.87C40.968 6.514 41.486 7.256 41.962 8.096L42.844 7.634C42.41 6.85 41.906 6.122 41.332 5.464ZM58.482 5.506V8.026H53.47V14.606H54.478V13.724H58.482V18.498H59.518V13.724H63.536V14.606H64.544V8.026H59.518V5.506H58.482ZM54.478 12.744V9.006H58.482V12.744H54.478ZM59.518 12.744V9.006H63.536V12.744H59.518Z" fill="#1890FF"></path>
</svg>