<svg xmlns="http://www.w3.org/2000/svg" width="16" height="16" viewBox="0 0 16 16">
  <path d="M10.3077 10.3077H12.1538V8.46154H14V11.2308H12.1538V12.1538H10.3077V11.2308H8.46154V8.46154H10.3077V10.3077ZM2 8.46154H7.53846V14H2V8.46154ZM3.84615 10.3077V12.1538H5.69231V10.3077H3.84615ZM2 2H7.53846V7.53846H2V2ZM3.84615 3.84615V5.69231H5.69231V3.84615H3.84615ZM8.46154 2H14V7.53846H8.46154V2ZM10.3077 3.84615V5.69231H12.1538V3.84615H10.3077ZM12.1538 12.1538H14V14H12.1538V12.1538ZM8.46154 12.1538H10.3077V14H8.46154V12.1538Z" fill="#333333"></path>
</svg>