<svg xmlns="http://www.w3.org/2000/svg" width="72" height="24" viewBox="0 0 72 24">
  <rect opacity="0.2" width="72" height="24" rx="3" fill="#0AD0B6"></rect>
  <path d="M19.5 12C19.5 15.0376 17.0376 17.5 14 17.5V18.5C17.5899 18.5 20.5 15.5899 20.5 12H19.5ZM14 17.5C10.9624 17.5 8.5 15.0376 8.5 12H7.5C7.5 15.5899 10.4101 18.5 14 18.5V17.5ZM8.5 12C8.5 8.96243 10.9624 6.5 14 6.5V5.5C10.4101 5.5 7.5 8.41015 7.5 12H8.5ZM14 6.5C17.0376 6.5 19.5 8.96243 19.5 12H20.5C20.5 8.41015 17.5899 5.5 14 5.5V6.5Z" fill="#0AD0B6"></path>
  <path d="M13.3333 13.6667L12.9798 14.0202L13.3333 14.3738L13.6869 14.0202L13.3333 13.6667ZM10.6464 11.6869L12.9798 14.0202L13.6869 13.3131L11.3536 10.9798L10.6464 11.6869ZM13.6869 14.0202L17.5202 10.1869L16.8131 9.47979L12.9798 13.3131L13.6869 14.0202Z" fill="#0AD0B6"></path>
  <path d="M35.69 11.904V6.304H25.33V7.284H34.668V10.938H26.898V8.866H25.89V16.216C25.89 17.364 26.45 17.952 27.584 17.952H35.172C35.76 17.924 36.222 17.77 36.53 17.476C36.866 17.112 37.104 16.076 37.244 14.34L36.264 14.032C36.18 15.572 35.998 16.468 35.718 16.72C35.508 16.888 35.228 16.972 34.892 16.972H27.864C27.22 16.972 26.898 16.65 26.898 16.034V11.904H35.69ZM39.764 5.786L39.078 6.444C40.1 7.228 40.898 7.97 41.486 8.67L42.2 7.97C41.542 7.242 40.73 6.514 39.764 5.786ZM47.954 18.148H51.132L51.37 17.14C51.006 17.168 50.488 17.182 49.816 17.196C49.13 17.21 48.458 17.224 47.814 17.224C46.708 17.224 45.784 17.21 45.042 17.196C44.202 17.168 43.572 17.056 43.124 16.86C42.732 16.678 42.368 16.384 42.032 15.978C41.906 15.838 41.794 15.74 41.682 15.656V10.42H38.756V11.344H40.744V15.6C40.17 15.852 39.512 16.566 38.77 17.742L39.526 18.428C40.296 17.14 40.856 16.496 41.192 16.496C41.36 16.496 41.542 16.608 41.738 16.846C42.172 17.35 42.676 17.7 43.236 17.868C43.796 18.022 44.538 18.106 45.448 18.12C46.344 18.134 47.184 18.148 47.954 18.148ZM45.448 7.13L44.832 7.732C45.518 8.096 46.134 8.474 46.666 8.852H43.166V16.3H44.118V13.85H46.456V16.258H47.394V13.85H49.746V14.9C49.746 15.208 49.578 15.376 49.242 15.376L48.136 15.334L48.36 16.188H49.522C50.306 16.188 50.698 15.824 50.698 15.11V8.852H47.926L47.702 8.67C48.682 8.138 49.592 7.508 50.432 6.78V6.052H42.858V6.906H49.074C48.458 7.382 47.786 7.802 47.058 8.18C46.582 7.83 46.036 7.48 45.448 7.13ZM44.118 11.792H46.456V13.024H44.118V11.792ZM47.394 11.792H49.746V13.024H47.394V11.792ZM49.746 10.952H47.394V9.692H49.746V10.952ZM46.456 10.952H44.118V9.692H46.456V10.952ZM53.722 5.758L53.022 6.416C54.03 7.228 54.814 7.998 55.388 8.712L56.116 7.97C55.472 7.242 54.674 6.5 53.722 5.758ZM62.234 18.148H65.188L65.44 17.126C65.104 17.154 64.614 17.168 63.984 17.182C63.34 17.182 62.724 17.196 62.108 17.196C60.96 17.196 59.994 17.182 59.224 17.168C58.356 17.14 57.684 17.042 57.236 16.86C56.83 16.664 56.452 16.37 56.088 15.978C55.962 15.838 55.836 15.74 55.724 15.656V10.406H52.742V11.358H54.758V15.6C54.17 15.852 53.512 16.58 52.756 17.784L53.512 18.456C54.296 17.14 54.87 16.496 55.206 16.496C55.388 16.496 55.584 16.608 55.78 16.846C56.228 17.35 56.746 17.7 57.334 17.868C57.908 18.022 58.678 18.106 59.63 18.12C60.568 18.134 61.436 18.148 62.234 18.148ZM61.814 16.272C62.654 16.272 63.088 15.852 63.088 15.04V8.852H65.16V7.858H63.088V5.59H62.066V7.858H56.774V8.852H62.066V14.802C62.066 15.18 61.856 15.376 61.464 15.376C60.876 15.376 60.246 15.348 59.602 15.306L59.826 16.272H61.814ZM58.3 10.098L57.516 10.602C58.37 11.624 59.042 12.548 59.546 13.388L60.358 12.828C59.882 12.044 59.196 11.134 58.3 10.098Z" fill="#0AD0B6"></path>
</svg>