<svg xmlns="http://www.w3.org/2000/svg" width="86" height="24" viewBox="0 0 86 24">
  <rect opacity="0.2" width="86" height="24" rx="3" fill="#999999"></rect>
  <path fill-rule="evenodd" clip-rule="evenodd" d="M17.8891 8.11091C15.7412 5.96303 12.2588 5.96303 10.1109 8.11091C7.96303 10.2588 7.96303 13.7412 10.1109 15.8891C12.2588 18.037 15.7412 18.037 17.8891 15.8891C20.037 13.7412 20.037 10.2588 17.8891 8.11091ZM9.40381 7.40381C11.9422 4.8654 16.0578 4.8654 18.5962 7.40381C21.1346 9.94221 21.1346 14.0578 18.5962 16.5962C16.0578 19.1346 11.9422 19.1346 9.40381 16.5962C6.8654 14.0578 6.8654 9.94221 9.40381 7.40381Z" fill="#999999"></path>
  <path fill-rule="evenodd" clip-rule="evenodd" d="M17.8891 16.5962L9.40381 8.11092L10.1109 7.40381L18.5962 15.8891L17.8891 16.5962Z" fill="#999999"></path>
  <path d="M31.014 10.616C30.37 10.672 29.684 10.728 28.956 10.784V9.678H31.14V8.852H28.956V7.928H28.032V8.852H26.408C26.758 8.39 27.094 7.858 27.402 7.27H31.238V6.374H27.822C27.934 6.122 28.032 5.87 28.13 5.618L27.122 5.45C27.01 5.758 26.884 6.066 26.758 6.374H24.812V7.27H26.31C25.974 7.9 25.596 8.432 25.204 8.88L25.428 9.678H28.032V10.84C27.08 10.896 26.058 10.938 24.994 10.994L25.12 11.89C26.128 11.834 27.108 11.764 28.032 11.708V12.716H28.956V11.638C29.67 11.568 30.356 11.498 31.014 11.442V10.616ZM32.974 9.692H34.794V12.73H35.76V9.692H37.244V8.81H33.044V7.354C34.556 7.186 35.816 6.864 36.852 6.416L36.208 5.66C35.228 6.108 33.856 6.416 32.12 6.584V8.782C32.092 10.042 31.756 11.12 31.14 12.03L31.84 12.758C32.442 11.89 32.82 10.868 32.974 9.692ZM35.676 13.136H26.492V18.4H27.528V17.854H34.64V18.4H35.676V13.136ZM27.528 16.986V15.894H34.64V16.986H27.528ZM27.528 15.082V13.99H34.64V15.082H27.528ZM39.862 6.318V7.298H43.88V8.236C43.866 9.104 43.81 9.93 43.698 10.686H38.924V11.652H43.53C43.348 12.534 43.096 13.332 42.76 14.032C42.004 15.46 40.674 16.594 38.742 17.462L39.302 18.358C41.248 17.518 42.648 16.328 43.516 14.816C43.992 13.92 44.342 12.87 44.566 11.652H45.7V16.748C45.7 17.7 46.148 18.176 47.072 18.176H49.34C49.928 18.176 50.348 18.05 50.614 17.798C50.922 17.49 51.132 16.664 51.244 15.292L50.292 14.984C50.222 16.076 50.096 16.72 49.9 16.944C49.746 17.126 49.494 17.224 49.158 17.224H47.38C46.932 17.224 46.708 16.986 46.708 16.538V11.652H51.048V10.686H44.72C44.818 9.93 44.874 9.104 44.902 8.236V7.298H49.914V6.318H39.862ZM57.768 15.6C56.34 16.118 54.688 16.538 52.784 16.846L52.91 17.826C54.73 17.49 56.34 17.07 57.768 16.552V15.6ZM55.178 5.52C54.618 7.186 53.946 8.656 53.162 9.944C53.036 10.126 52.896 10.252 52.742 10.322L52.994 11.246C53.806 11.134 54.604 11.022 55.402 10.896C54.618 12.212 53.96 13.136 53.428 13.682C53.302 13.794 53.148 13.892 52.966 13.976L53.232 14.886C54.632 14.704 56.088 14.354 57.6 13.836V12.94C56.564 13.29 55.514 13.57 54.45 13.78C55.304 12.772 56.368 11.092 57.642 8.726L56.76 8.404C56.48 8.936 56.2 9.454 55.934 9.958C55.262 10.07 54.604 10.168 53.946 10.252C54.674 9.16 55.402 7.704 56.116 5.884L55.178 5.52ZM57.6 7.298V8.278H60.946V10.35H58.062V11.33H64.894V10.35H61.968V8.278H65.3V7.298H61.968V5.604H60.946V7.298H57.6ZM64.488 12.73H58.51V18.358H59.504V17.686H63.508V18.358H64.488V12.73ZM59.504 16.734V13.682H63.508V16.734H59.504ZM68.296 6.122V11.54H72.482V12.814H66.91V13.766H71.572C70.55 15.11 68.898 16.216 66.616 17.084L67.19 18.008C69.626 16.902 71.362 15.488 72.426 13.766H72.482V18.386H73.518V13.766H73.588C74.568 15.334 76.276 16.748 78.712 18.022L79.398 17.14C77.074 16.16 75.408 15.026 74.414 13.766H79.09V12.814H73.518V11.54H77.634V6.122H68.296ZM76.64 10.658H73.518V9.3H76.64V10.658ZM72.482 10.658H69.304V9.3H72.482V10.658ZM69.304 8.418V7.018H72.482V8.418H69.304ZM73.518 7.018H76.64V8.418H73.518V7.018Z" fill="#999999"></path>
</svg>