<svg xmlns="http://www.w3.org/2000/svg" fill="none" viewBox="0 0 20 20" class="design-iconfont">
  <path d="M12.1484 6.67969H5.89844C5.5748 6.67969 5.3125 6.41738 5.3125 6.09375C5.3125 5.77012 5.5748 5.50781 5.89844 5.50781H12.1484C12.4719 5.50781 12.7344 5.77012 12.7344 6.09375C12.7344 6.41738 12.4719 6.67969 12.1484 6.67969ZM9.02344 10.5859H5.89844C5.5748 10.5859 5.3125 10.3236 5.3125 10C5.3125 9.67637 5.5748 9.41406 5.89844 9.41406H9.02344C9.34707 9.41406 9.60938 9.67637 9.60938 10C9.60938 10.3236 9.34707 10.5859 9.02344 10.5859ZM7.85156 14.4922H5.89844C5.5748 14.4922 5.3125 14.2297 5.3125 13.9062C5.3125 13.5828 5.5748 13.3203 5.89844 13.3203H7.85156C8.1752 13.3203 8.4375 13.5828 8.4375 13.9062C8.4375 14.2297 8.1752 14.4922 7.85156 14.4922ZM13.9062 18.3984C11.4293 18.3984 9.41406 16.3832 9.41406 13.9062C9.41406 11.4293 11.4293 9.41406 13.9062 9.41406C16.3832 9.41406 18.3984 11.4293 18.3984 13.9062C18.3984 16.3832 16.3832 18.3984 13.9062 18.3984ZM13.9062 10.5859C12.0756 10.5859 10.5859 12.0756 10.5859 13.9062C10.5859 15.7369 12.0756 17.2266 13.9062 17.2266C15.7369 17.2266 17.2266 15.7369 17.2266 13.9062C17.2266 12.0756 15.7369 10.5859 13.9062 10.5859Z" fill="#666"/>
  <path d="M9.60938 18.3984H4.14062C2.74063 18.3984 1.60156 17.2594 1.60156 15.8594V4.14062C1.60156 2.74063 2.74063 1.60156 4.14062 1.60156H13.9062C15.3062 1.60156 16.4453 2.74063 16.4453 4.14062V8.18301C16.4453 8.50664 16.1828 8.76895 15.8594 8.76895C15.5359 8.76895 15.2734 8.50664 15.2734 8.18301V4.14062C15.2734 3.38691 14.66 2.77344 13.9062 2.77344H4.14062C3.38691 2.77344 2.77344 3.38691 2.77344 4.14062V15.8594C2.77344 16.6131 3.38691 17.2266 4.14062 17.2266H9.60938C9.93301 17.2266 10.1953 17.4891 10.1953 17.8125C10.1953 18.1359 9.93301 18.3984 9.60938 18.3984Z" fill="#666"/>
  <path d="M13.9062 14.4922C13.5828 14.4922 13.3203 14.2297 13.3203 13.9062V12.7344C13.3203 12.4109 13.5828 12.1484 13.9062 12.1484C14.2297 12.1484 14.4922 12.4109 14.4922 12.7344V13.9062C14.4922 14.2297 14.2297 14.4922 13.9062 14.4922Z" fill="#666"/>
  <path d="M15.8594 14.4922H13.9062C13.5828 14.4922 13.3203 14.2297 13.3203 13.9062C13.3203 13.5828 13.5828 13.3203 13.9062 13.3203H15.8594C16.1828 13.3203 16.4453 13.5828 16.4453 13.9062C16.4453 14.2297 16.1828 14.4922 15.8594 14.4922Z" fill="#666"/>
</svg>
