<svg xmlns="http://www.w3.org/2000/svg" width="16" height="16" viewBox="0 0 16 16">
  <path fill-rule="evenodd" clip-rule="evenodd" d="M9.38404 1.74789C9.70948 1.42246 10.2371 1.42246 10.5626 1.74789L12.4244 3.60979C12.7499 3.93523 12.7499 4.46286 12.4244 4.7883L5.60782 11.6049C5.47521 11.7375 5.30174 11.8215 5.11547 11.8434L3.09982 12.0793C2.5793 12.1403 2.13241 11.7113 2.17196 11.1888L2.33117 9.08542C2.34621 8.88671 2.43196 8.69997 2.57287 8.55906L9.38404 1.74789ZM9.9733 2.57285L8.53343 4.01272L10.1596 5.63891L11.5995 4.19904L9.9733 2.57285ZM9.45252 6.34602L7.82632 4.71982L3.32365 9.22249L3.18437 11.0626L4.94167 10.8569L9.45252 6.34602ZM13.9999 14.4999L1.99994 14.4999V13.4999L13.9999 13.4999V14.4999Z" fill="#3464E0"></path>
</svg>