<svg xmlns="http://www.w3.org/2000/svg" width="16" height="16" viewBox="0 0 16 16">
  <path fill-rule="evenodd" clip-rule="evenodd" d="M10.6667 1.83331C8.73367 1.83331 7.16666 3.40032 7.16666 5.33331C7.16666 5.9253 7.31325 6.48161 7.57168 6.96936C7.67447 7.16337 7.63867 7.40174 7.48341 7.557L2.04044 13L2.99999 13.9595L8.44297 8.51656C8.59823 8.3613 8.8366 8.3255 9.03062 8.4283C9.51837 8.68672 10.0747 8.83331 10.6667 8.83331C12.5997 8.83331 14.1667 7.2663 14.1667 5.33331C14.1667 4.99069 14.1176 4.66001 14.0261 4.34766L12.0202 6.35353C11.825 6.54879 11.5084 6.54879 11.3131 6.35353L9.64644 4.68687C9.45118 4.4916 9.45118 4.17502 9.64644 3.97976L11.6523 1.97388C11.34 1.88241 11.0093 1.83331 10.6667 1.83331ZM6.16666 5.33331C6.16666 2.84803 8.18139 0.833313 10.6667 0.833313C11.4258 0.833313 12.1424 1.0217 12.7709 1.3547C12.9111 1.42897 13.0077 1.56536 13.0312 1.72225C13.0548 1.87913 13.0025 2.03789 12.8903 2.15006L10.7071 4.33331L11.6667 5.29287L13.8499 3.10963C13.9621 2.99745 14.1208 2.94516 14.2777 2.96873C14.4346 2.99229 14.571 3.08891 14.6453 3.22909C14.9783 3.85754 15.1667 4.57417 15.1667 5.33331C15.1667 7.81859 13.1519 9.83331 10.6667 9.83331C10.0404 9.83331 9.44316 9.70511 8.90044 9.47331L3.35355 15.0202C3.15829 15.2155 2.8417 15.2155 2.64644 15.0202L0.979775 13.3535C0.784513 13.1583 0.784513 12.8417 0.979775 12.6464L6.52666 7.09954C6.29487 6.55681 6.16666 5.95953 6.16666 5.33331Z" fill="#3464E0"></path>
</svg>