<svg xmlns="http://www.w3.org/2000/svg" width="16" height="16" viewBox="0 0 16 16">
  <path d="M9.71875 5.34375H4.71875C4.45984 5.34375 4.25 5.13391 4.25 4.875C4.25 4.61609 4.45984 4.40625 4.71875 4.40625H9.71875C9.9775 4.40625 10.1875 4.61609 10.1875 4.875C10.1875 5.13391 9.9775 5.34375 9.71875 5.34375ZM7.21875 8.46875H4.71875C4.45984 8.46875 4.25 8.25891 4.25 8C4.25 7.74109 4.45984 7.53125 4.71875 7.53125H7.21875C7.47766 7.53125 7.6875 7.74109 7.6875 8C7.6875 8.25891 7.47766 8.46875 7.21875 8.46875ZM6.28125 11.5938H4.71875C4.45984 11.5938 4.25 11.3837 4.25 11.125C4.25 10.8663 4.45984 10.6562 4.71875 10.6562H6.28125C6.54016 10.6562 6.75 10.8663 6.75 11.125C6.75 11.3837 6.54016 11.5938 6.28125 11.5938ZM11.125 14.7188C9.14344 14.7188 7.53125 13.1066 7.53125 11.125C7.53125 9.14344 9.14344 7.53125 11.125 7.53125C13.1066 7.53125 14.7188 9.14344 14.7188 11.125C14.7188 13.1066 13.1066 14.7188 11.125 14.7188ZM11.125 8.46875C9.66047 8.46875 8.46875 9.66047 8.46875 11.125C8.46875 12.5895 9.66047 13.7812 11.125 13.7812C12.5895 13.7812 13.7812 12.5895 13.7812 11.125C13.7812 9.66047 12.5895 8.46875 11.125 8.46875Z" fill="#3464E0"></path>
  <path d="M7.6875 14.7188H3.3125C2.1925 14.7188 1.28125 13.8075 1.28125 12.6875V3.3125C1.28125 2.1925 2.1925 1.28125 3.3125 1.28125H11.125C12.245 1.28125 13.1562 2.1925 13.1562 3.3125V6.54641C13.1562 6.80531 12.9462 7.01516 12.6875 7.01516C12.4288 7.01516 12.2188 6.80531 12.2188 6.54641V3.3125C12.2188 2.70953 11.728 2.21875 11.125 2.21875H3.3125C2.70953 2.21875 2.21875 2.70953 2.21875 3.3125V12.6875C2.21875 13.2905 2.70953 13.7812 3.3125 13.7812H7.6875C7.94641 13.7812 8.15625 13.9913 8.15625 14.25C8.15625 14.5087 7.94641 14.7188 7.6875 14.7188Z" fill="#3464E0"></path>
  <path d="M11.125 11.5938C10.8663 11.5938 10.6562 11.3837 10.6562 11.125V10.1875C10.6562 9.92875 10.8663 9.71875 11.125 9.71875C11.3837 9.71875 11.5938 9.92875 11.5938 10.1875V11.125C11.5938 11.3837 11.3837 11.5938 11.125 11.5938Z" fill="#3464E0"></path>
  <path d="M12.6875 11.5938H11.125C10.8663 11.5938 10.6562 11.3837 10.6562 11.125C10.6562 10.8663 10.8663 10.6562 11.125 10.6562H12.6875C12.9462 10.6562 13.1562 10.8663 13.1562 11.125C13.1562 11.3837 12.9462 11.5938 12.6875 11.5938Z" fill="#3464E0"></path>
</svg>