<svg xmlns="http://www.w3.org/2000/svg" width="16" height="16" viewBox="0 0 16 16">
  <path d="M12.5584 14.582C12.4748 14.582 12.3927 14.5597 12.3206 14.5172C12.2485 14.4748 12.1891 14.4138 12.1486 14.3406L11.0808 12.4147C10.955 12.1883 11.0369 11.903 11.2633 11.7775C11.4897 11.6517 11.7753 11.7336 11.9005 11.96L12.4717 12.9906L12.5223 12.853C12.6008 12.6406 12.8217 12.5145 13.042 12.5526L13.2095 12.5817L12.6114 11.5456C12.482 11.3212 12.5586 11.0347 12.783 10.9053C13.0067 10.7759 13.2941 10.8525 13.4233 11.0769L14.5219 12.9797C14.5664 13.0568 14.5881 13.1451 14.5843 13.2341C14.5805 13.3231 14.5514 13.4092 14.5005 13.4823C14.3964 13.6312 14.2136 13.7061 14.0362 13.6761L13.2675 13.543L12.9984 14.275C12.9674 14.3593 12.9128 14.4328 12.8412 14.487C12.7696 14.5411 12.6839 14.5736 12.5944 14.5805C12.5822 14.5817 12.5703 14.582 12.5584 14.582V14.582Z" fill="#3464E0"></path>
  <path d="M9.95953 14.582C9.94828 14.582 9.93672 14.5817 9.92532 14.5808C9.74157 14.5673 9.58328 14.4476 9.51938 14.275L9.25016 13.5428L8.48141 13.6759C8.30282 13.7064 8.12125 13.6314 8.01719 13.4822C7.96627 13.4091 7.93721 13.323 7.93342 13.234C7.92963 13.1449 7.95126 13.0567 7.99578 12.9795L9.09438 11.0767C9.22375 10.8523 9.51094 10.7758 9.73469 10.9051C9.95907 11.0345 10.0356 11.3211 9.90625 11.5455L9.30813 12.5816L9.47563 12.5525C9.69532 12.5141 9.91688 12.6403 9.99532 12.8528L10.0423 12.9806L10.5975 11.9608C10.7214 11.7334 11.0067 11.6498 11.2331 11.7734C11.4608 11.8973 11.5447 12.1817 11.4208 12.4091L10.3709 14.3372C10.3308 14.4113 10.2714 14.4731 10.1989 14.5162C10.1265 14.5593 10.0438 14.5821 9.95953 14.582V14.582Z" fill="#3464E0"></path>
  <path d="M11.2589 12.6683C9.79437 12.6683 8.60265 11.4766 8.60265 10.012C8.60265 8.54719 9.79437 7.35563 11.2589 7.35563C12.7234 7.35563 13.9152 8.54719 13.9152 10.012C13.9152 11.4766 12.7234 12.6683 11.2589 12.6683ZM11.2589 8.29313C10.3114 8.29313 9.54015 9.06422 9.54015 10.012C9.54015 10.9595 10.3114 11.7308 11.2589 11.7308C12.2064 11.7308 12.9777 10.9595 12.9777 10.012C12.9777 9.06422 12.2066 8.29313 11.2589 8.29313ZM9.85265 5.34375H4.85265C4.59375 5.34375 4.3839 5.13391 4.3839 4.875C4.3839 4.61609 4.59375 4.40625 4.85265 4.40625H9.85265C10.1114 4.40625 10.3214 4.61609 10.3214 4.875C10.3214 5.13391 10.1116 5.34375 9.85265 5.34375ZM7.35265 8.46875H4.85265C4.59375 8.46875 4.3839 8.25891 4.3839 8C4.3839 7.74109 4.59375 7.53125 4.85265 7.53125H7.35265C7.61156 7.53125 7.8214 7.74109 7.8214 8C7.8214 8.25891 7.61172 8.46875 7.35265 8.46875Z" fill="#3464E0"></path>
  <path d="M6.41515 11.5938H4.85265C4.59375 11.5938 4.3839 11.3837 4.3839 11.125C4.3839 10.8663 4.59375 10.6562 4.85265 10.6562H6.41515C6.67406 10.6562 6.8839 10.8663 6.8839 11.125C6.8839 11.3837 6.67422 11.5938 6.41515 11.5938Z" fill="#3464E0"></path>
  <path d="M7.82141 14.7188H3.44641C2.32641 14.7188 1.41516 13.8075 1.41516 12.6875V3.3125C1.41516 2.1925 2.32641 1.28125 3.44641 1.28125H11.2589C12.3789 1.28125 13.2902 2.1925 13.2902 3.3125V6.54641C13.2902 6.80531 13.0802 7.01516 12.8214 7.01516C12.5627 7.01516 12.3527 6.80531 12.3527 6.54641V3.3125C12.3527 2.70953 11.8619 2.21875 11.2589 2.21875H3.44641C2.84344 2.21875 2.35266 2.70953 2.35266 3.3125V12.6875C2.35266 13.2905 2.84344 13.7812 3.44641 13.7812H7.82141C8.08032 13.7812 8.29016 13.9913 8.29016 14.25C8.29016 14.5087 8.08047 14.7188 7.82141 14.7188V14.7188Z" fill="#3464E0"></path>
</svg>