<svg xmlns="http://www.w3.org/2000/svg" viewBox="0 0 16 16">
  <defs>
    <style>.cls-1{fill:#ffe9e9;}.cls-2{fill:#fd6763;}</style>
  </defs>
  <g id="&#x56FE;&#x5C42;_2">
    <g id="&#x56FE;&#x5C42;_1-2">
      <path class="cls-1" d="M0,8A8,8,0,1,0,8,0,8,8,0,0,0,0,8Z"></path>
      <polygon class="cls-2" points="5.76 5.1 4.95 4.25 4.5 4.68 5.31 5.53 5.76 5.1"></polygon>
      <rect class="cls-2" x="7.72" y="3.24" width="0.62" height="1.13"></rect>
      <polygon class="cls-2" points="11.5 4.74 11.05 4.31 10.22 5.16 10.67 5.59 11.5 4.74"></polygon>
      <path class="cls-2" d="M11,10.12V7.83a3,3,0,1,0-6,0v2.31H4.52v.62h6.89v-.64ZM7.43,9.38l.45-1.45-1-.26L8.59,6.2,8.12,7.48l1,.32Z"></path>
    </g>
  </g>
</svg>