<svg xmlns="http://www.w3.org/2000/svg" width="44" height="18" viewBox="0 0 44 18">
  <path d="M0 4C0 1.79086 1.79086 0 4 0H44V14C44 16.2091 42.2091 18 40 18H0V4Z" fill="#3464E0"></path>
  <path d="M14.824 4.256H13.084C12.964 3.896 12.892 3.596 12.832 3.284H11.536C11.596 3.632 11.656 3.932 11.752 4.256H9.316C9.268 4.784 9.208 5.324 9.136 5.864H7.924C7.744 6.176 7.528 6.512 7.3 6.86H6.424C7.096 5.84 7.804 4.592 8.452 3.284H7.048C6.352 4.832 5.524 6.38 4.612 7.82H6.628C5.884 8.864 5.032 9.944 4.288 10.82C5.476 10.736 6.892 10.58 7.996 10.46L8.152 9.476C7.708 9.548 6.988 9.644 6.556 9.68C7.408 8.6 8.296 7.388 9.1 6.188C8.764 8.72 8.224 11.348 7.348 14.084H8.656C9.244 12.02 9.736 9.656 10.096 7.364H15.196L15.532 4.94C15.604 4.412 15.484 4.256 14.824 4.256ZM14.308 5.372L14.152 6.416H10.24C10.288 6.008 10.348 5.6 10.384 5.204H14.128C14.284 5.204 14.32 5.252 14.308 5.372ZM14.464 8.144H10.204L9.352 14.084H10.396L10.78 11.36H11.188L10.864 13.664H11.728L12.04 11.36H12.46L12.136 13.664H12.784L12.928 14.084H14.44L15.172 8.888C15.256 8.252 15.112 8.144 14.464 8.144ZM10.888 10.604L11.092 9.104H11.5L11.296 10.604H10.888ZM12.148 10.604L12.352 9.104H12.772L12.568 10.604H12.148ZM14.044 9.296L13.864 10.604H13.42L13.624 9.104H13.9C14.032 9.104 14.068 9.164 14.044 9.296ZM7.9 11.264C6.688 11.696 5.272 12.2 4.048 12.572L3.868 13.712C5.308 13.292 6.568 12.848 7.744 12.38L7.9 11.264ZM13.06 13.208L13.312 11.36H13.768L13.516 13.208H13.06Z" fill="white"></path>
  <path d="M21.28 7.232L21.412 6.2H19.888L20.104 4.64C20.596 4.58 21.052 4.52 21.448 4.46L21.592 3.32C20.332 3.524 18.964 3.704 17.536 3.836L17.404 4.94C17.884 4.892 18.376 4.844 18.868 4.784L18.664 6.2H16.996L16.864 7.232H18.52L17.56 14.084H18.832L19.756 7.232H21.28ZM26.716 3.632H22.108L21.616 7.28H27.076L27.448 4.424C27.52 3.86 27.376 3.632 26.716 3.632ZM26.116 4.844L25.912 6.248H23.032L23.26 4.664H25.972C26.092 4.664 26.14 4.712 26.116 4.844ZM21.496 9.2H23.56L23.38 10.496H21.688L21.532 11.468H23.248L23.02 13.076H20.476L20.344 14.084H26.608L26.752 13.076H24.352L24.568 11.468H26.212L26.368 10.496H24.7L24.868 9.2H26.8L26.944 8.216H21.628L21.496 9.2ZM17.128 8.336C16.804 9.812 16.348 11.492 15.82 13.124H17.044C17.452 11.636 17.848 9.98 18.196 8.336H17.128ZM20.764 8.336H19.84C19.72 9.92 19.576 11.516 19.456 12.944H20.548C20.596 11.564 20.68 9.896 20.764 8.336Z" fill="white"></path>
  <path d="M33.88 4.4C33.976 3.728 33.856 3.512 33.088 3.512H29.968L29.356 7.484H33.46L33.88 4.4ZM39.616 4.592L39.748 3.596H34.444L34.312 4.592H36.376C36.256 4.916 36.136 5.252 35.992 5.588H34.588L33.904 10.556H35.092L35.62 6.548H37.912C38.032 6.548 38.08 6.596 38.068 6.716L37.54 10.556H38.716L39.232 6.476C39.316 5.804 39.172 5.588 38.464 5.588H37.24C37.36 5.252 37.48 4.916 37.576 4.592H39.616ZM32.584 4.472C32.644 4.472 32.692 4.52 32.68 4.604L32.62 5.024H30.916L31 4.472H32.584ZM30.7 6.512L30.784 5.96H32.488L32.404 6.512H30.7ZM37.36 6.992H36.244C36.184 7.772 36.076 8.54 35.908 9.2C35.56 10.568 34.972 11.516 33.436 12.572H35.236C35.692 12.08 36.124 11.492 36.448 10.844C36.724 11.444 36.988 12.008 37.276 12.596H38.668C38.116 11.768 37.636 10.976 37.264 10.256H36.724C36.844 9.956 36.952 9.644 37.024 9.332C37.18 8.672 37.288 7.832 37.36 6.992ZM31.768 12.308L31.924 11.216H33.352L33.496 10.232H32.068L32.236 9.056H33.688L33.82 8.036H28.84L28.708 9.056H30.964L30.58 11.648C30.412 11.516 30.256 11.372 30.1 11.18L30.472 9.788H29.236C28.912 11.084 28.408 12.62 27.844 14.084H29.2C29.392 13.52 29.596 12.884 29.788 12.248C31.54 13.856 33.856 14.084 36.736 14.084H38.524L39.028 13.004H37.228C35.272 13.004 33.148 12.98 31.768 12.308Z" fill="white"></path>
</svg>