<svg xmlns="http://www.w3.org/2000/svg" width="44" height="18" viewBox="0 0 44 18">
  <path d="M0 4C0 1.79086 1.79086 0 4 0H44V14C44 16.2091 42.2091 18 40 18H0V4Z" fill="#3464E0"></path>
  <path d="M14.368 6.21997C14.692 5.88397 14.788 5.45197 14.788 5.11597C14.788 4.86397 14.656 4.74397 14.236 4.74397H10.444C10.744 4.44397 11.008 4.11997 11.224 3.77197H9.68799C8.79999 4.81597 7.69599 5.37997 6.32799 5.70397L5.95599 7.01197C7.13199 6.72397 8.21199 6.31597 9.12399 5.76397H12.856C13 5.76397 13 5.82397 12.916 5.89597C12.196 6.53197 11.2 6.99997 10.084 7.37197C9.90399 7.03597 9.74799 6.71197 9.59199 6.35197H8.06799C8.33199 6.90397 8.53599 7.32397 8.77599 7.74397C7.63599 8.03197 6.42399 8.23597 5.27199 8.33197L4.86399 9.63997C9.01599 9.14797 12.592 8.01997 14.368 6.21997ZM14.44 9.24397H10.864C11.032 9.06397 11.2 8.85997 11.356 8.65597H9.83199C8.72799 9.69997 7.45599 10.18 5.89599 10.468L5.48799 11.8C7.05999 11.524 8.47599 11.02 9.62799 10.264H12.988C13.156 10.264 13.156 10.312 13.06 10.396C12.34 11.092 11.356 11.716 10.24 12.16C10.06 11.8 9.89199 11.464 9.73599 11.08H8.18799C8.47599 11.68 8.69199 12.124 8.94399 12.58C7.44399 13 5.78799 13.228 4.44399 13.312L4.01199 14.62C9.90399 14.152 12.364 12.844 14.452 10.852C14.8 10.516 15.016 10.132 15.016 9.60397C15.016 9.35197 14.872 9.24397 14.44 9.24397Z" fill="white"></path>
  <path d="M27.16 8.99197L27.304 7.97197H24.472L24.7 6.42397H27.088L27.244 5.40397H24.844L25.084 3.78397H23.824L23.572 5.40397H22.492C22.672 4.99597 22.804 4.58797 22.876 4.17997H21.64C21.496 4.95997 21.088 5.81197 20.476 6.25597L20.224 7.68397C20.932 7.38397 21.472 6.93997 21.88 6.42397H23.416L23.188 7.97197H20.104L19.972 8.99197H21.7C21.52 10.156 20.932 11.26 19.576 12.688H21.244C22.228 11.488 22.804 10.204 23.008 8.99197H24.208L23.608 12.784H26.668L27.028 11.74H25.036L25.468 8.99197H27.16ZM19.792 6.48397C19.336 5.47597 18.952 4.58797 18.652 3.79597H17.332C17.656 4.76797 17.956 5.61997 18.268 6.48397H19.792ZM18.58 12.304C18.748 11.968 18.904 11.644 19.024 11.356L19.36 8.36797C19.408 7.88797 19.252 7.75597 18.784 7.75597H16.864L16.696 8.76397H17.896C18.04 8.76397 18.064 8.82397 18.052 8.96797L17.8 10.996C17.332 12.112 16.576 13.42 15.7 14.584H17.26C17.512 14.212 17.776 13.78 18.04 13.324C19.504 14.272 21.196 14.584 23.26 14.584H26.548L26.968 13.42H23.776C21.868 13.42 19.996 13.288 18.58 12.304Z" fill="white"></path>
  <path d="M33.88 4.89997C33.976 4.22797 33.856 4.01197 33.088 4.01197H29.968L29.356 7.98397H33.46L33.88 4.89997ZM39.616 5.09197L39.748 4.09597H34.444L34.312 5.09197H36.376C36.256 5.41597 36.136 5.75197 35.992 6.08797H34.588L33.904 11.056H35.092L35.62 7.04797H37.912C38.032 7.04797 38.08 7.09597 38.068 7.21597L37.54 11.056H38.716L39.232 6.97597C39.316 6.30397 39.172 6.08797 38.464 6.08797H37.24C37.36 5.75197 37.48 5.41597 37.576 5.09197H39.616ZM32.584 4.97197C32.644 4.97197 32.692 5.01997 32.68 5.10397L32.62 5.52397H30.916L31 4.97197H32.584ZM30.7 7.01197L30.784 6.45997H32.488L32.404 7.01197H30.7ZM37.36 7.49197H36.244C36.184 8.27197 36.076 9.03997 35.908 9.69997C35.56 11.068 34.972 12.016 33.436 13.072H35.236C35.692 12.58 36.124 11.992 36.448 11.344C36.724 11.944 36.988 12.508 37.276 13.096H38.668C38.116 12.268 37.636 11.476 37.264 10.756H36.724C36.844 10.456 36.952 10.144 37.024 9.83197C37.18 9.17197 37.288 8.33197 37.36 7.49197ZM31.768 12.808L31.924 11.716H33.352L33.496 10.732H32.068L32.236 9.55597H33.688L33.82 8.53597H28.84L28.708 9.55597H30.964L30.58 12.148C30.412 12.016 30.256 11.872 30.1 11.68L30.472 10.288H29.236C28.912 11.584 28.408 13.12 27.844 14.584H29.2C29.392 14.02 29.596 13.384 29.788 12.748C31.54 14.356 33.856 14.584 36.736 14.584H38.524L39.028 13.504H37.228C35.272 13.504 33.148 13.48 31.768 12.808Z" fill="white"></path>
</svg>