<svg xmlns="http://www.w3.org/2000/svg" width="44" height="18" viewBox="0 0 44 18">
  <path d="M0 4C0 1.79086 1.79086 0 4 0H44V14C44 16.2091 42.2091 18 40 18H0V4Z" fill="#3464E0"></path>
  <path d="M15.088 11.584H10.264L10.396 10.672H13.888L14.464 6.472C14.548 5.884 14.44 5.728 13.864 5.728H12.508C12.916 5.224 13.6 4.276 13.936 3.784H12.316C12.052 4.204 11.44 5.068 10.9 5.728H6.32801L5.60801 10.672H9.07601L8.94401 11.584H4.37201L4.24001 12.568H8.80001L8.52401 14.584H9.85601L10.132 12.568H14.956L15.088 11.584ZM9.82001 5.452C9.54401 4.996 9.11201 4.168 8.92001 3.784H7.48001C7.69601 4.252 8.09201 5.056 8.30801 5.452H9.82001ZM9.62801 6.7L9.48401 7.672H7.34801L7.48001 6.7H9.62801ZM13.132 6.832L13.012 7.672H10.804L10.936 6.7H13.024C13.12 6.7 13.144 6.748 13.132 6.832ZM7.06001 9.7L7.21601 8.62H9.35201L9.20801 9.7H7.06001ZM10.528 9.7L10.672 8.62H12.868L12.7 9.7H10.528Z" fill="white"></path>
  <path d="M27.16 8.992L27.304 7.972H24.472L24.7 6.424H27.088L27.244 5.404H24.844L25.084 3.784H23.824L23.572 5.404H22.492C22.672 4.996 22.804 4.588 22.876 4.18H21.64C21.496 4.96 21.088 5.812 20.476 6.256L20.224 7.684C20.932 7.384 21.472 6.94 21.88 6.424H23.416L23.188 7.972H20.104L19.972 8.992H21.7C21.52 10.156 20.932 11.26 19.576 12.688H21.244C22.228 11.488 22.804 10.204 23.008 8.992H24.208L23.608 12.784H26.668L27.028 11.74H25.036L25.468 8.992H27.16ZM19.792 6.484C19.336 5.476 18.952 4.588 18.652 3.796H17.332C17.656 4.768 17.956 5.62 18.268 6.484H19.792ZM18.58 12.304C18.748 11.968 18.904 11.644 19.024 11.356L19.36 8.368C19.408 7.888 19.252 7.756 18.784 7.756H16.864L16.696 8.764H17.896C18.04 8.764 18.064 8.824 18.052 8.968L17.8 10.996C17.332 12.112 16.576 13.42 15.7 14.584H17.26C17.512 14.212 17.776 13.78 18.04 13.324C19.504 14.272 21.196 14.584 23.26 14.584H26.548L26.968 13.42H23.776C21.868 13.42 19.996 13.288 18.58 12.304Z" fill="white"></path>
  <path d="M33.88 4.9C33.976 4.228 33.856 4.012 33.088 4.012H29.968L29.356 7.984H33.46L33.88 4.9ZM39.616 5.092L39.748 4.096H34.444L34.312 5.092H36.376C36.256 5.416 36.136 5.752 35.992 6.088H34.588L33.904 11.056H35.092L35.62 7.048H37.912C38.032 7.048 38.08 7.096 38.068 7.216L37.54 11.056H38.716L39.232 6.976C39.316 6.304 39.172 6.088 38.464 6.088H37.24C37.36 5.752 37.48 5.416 37.576 5.092H39.616ZM32.584 4.972C32.644 4.972 32.692 5.02 32.68 5.104L32.62 5.524H30.916L31 4.972H32.584ZM30.7 7.012L30.784 6.46H32.488L32.404 7.012H30.7ZM37.36 7.492H36.244C36.184 8.272 36.076 9.04 35.908 9.7C35.56 11.068 34.972 12.016 33.436 13.072H35.236C35.692 12.58 36.124 11.992 36.448 11.344C36.724 11.944 36.988 12.508 37.276 13.096H38.668C38.116 12.268 37.636 11.476 37.264 10.756H36.724C36.844 10.456 36.952 10.144 37.024 9.832C37.18 9.172 37.288 8.332 37.36 7.492ZM31.768 12.808L31.924 11.716H33.352L33.496 10.732H32.068L32.236 9.556H33.688L33.82 8.536H28.84L28.708 9.556H30.964L30.58 12.148C30.412 12.016 30.256 11.872 30.1 11.68L30.472 10.288H29.236C28.912 11.584 28.408 13.12 27.844 14.584H29.2C29.392 14.02 29.596 13.384 29.788 12.748C31.54 14.356 33.856 14.584 36.736 14.584H38.524L39.028 13.504H37.228C35.272 13.504 33.148 13.48 31.768 12.808Z" fill="white"></path>
</svg>