<svg xmlns="http://www.w3.org/2000/svg" width="44" height="18" viewBox="0 0 44 18">
  <path d="M0 4C0 1.79086 1.79086 0 4 0H44V14C44 16.2091 42.2091 18 40 18H0V4Z" fill="#3464E0"></path>
  <path d="M8.32 9.428C7.864 9.656 7.42 9.872 7 10.076L7.42 6.956H8.512L8.644 5.9H7.564L7.924 3.284H6.64L6.28 5.9H5.08L4.948 6.956H6.136L5.62 10.688C5.164 10.868 4.708 11.048 4.24 11.216L4.108 12.44C5.56 11.912 6.772 11.36 8.176 10.676L8.32 9.428ZM15.556 4.976L15.7 4.04H12.904L13.024 3.284H11.74L11.608 4.04H8.872L8.728 4.976H11.452L11.344 5.624H9.292L8.512 11.132H7.636L7.504 12.068H14.968L15.1 11.132H14.032L14.68 6.392C14.764 5.78 14.548 5.624 13.984 5.624H12.64L12.748 4.976H15.556ZM13.384 6.74L13.348 7.028H10.336L10.408 6.548H13.24C13.36 6.548 13.408 6.596 13.384 6.74ZM13.156 8.372H10.156L10.216 7.88H13.228L13.156 8.372ZM12.964 9.74H9.964L10.036 9.224H13.036L12.964 9.74ZM9.76 11.132L9.844 10.592H12.856L12.772 11.132H9.76ZM7.012 14.084H8.908C9.532 13.592 10.24 12.944 10.768 12.38H9.196C8.704 12.86 7.96 13.448 7.012 14.084ZM12.988 12.38H11.452C11.956 12.944 12.484 13.52 13.084 14.084H14.788C14.056 13.448 13.48 12.908 12.988 12.38Z" fill="white"></path>
  <path d="M27.196 4.388H23.356C23.26 4.112 23.14 3.644 23.044 3.284H21.616C21.712 3.644 21.844 4.124 21.94 4.388H17.56L17.236 6.716H18.496L18.664 5.372H26.296C26.38 5.372 26.404 5.408 26.392 5.504L26.224 6.752H27.484L27.724 4.964C27.784 4.544 27.652 4.388 27.196 4.388ZM22.072 5.84H20.464C19.684 6.644 18.472 7.724 16.876 8.684H19.084C20.26 7.82 21.256 6.848 22.072 5.84ZM24.268 5.84H22.744C23.452 6.716 24.352 7.784 25.3 8.684H27.28C25.96 7.652 24.904 6.524 24.268 5.84ZM22.444 10.364H26.164L26.332 9.284H17.704L17.536 10.364H21.004L20.608 12.956H16.276L16.12 14.084H26.512L26.68 12.956H22.06L22.444 10.364Z" fill="white"></path>
  <path d="M33.88 4.4C33.976 3.728 33.856 3.512 33.088 3.512H29.968L29.356 7.484H33.46L33.88 4.4ZM39.616 4.592L39.748 3.596H34.444L34.312 4.592H36.376C36.256 4.916 36.136 5.252 35.992 5.588H34.588L33.904 10.556H35.092L35.62 6.548H37.912C38.032 6.548 38.08 6.596 38.068 6.716L37.54 10.556H38.716L39.232 6.476C39.316 5.804 39.172 5.588 38.464 5.588H37.24C37.36 5.252 37.48 4.916 37.576 4.592H39.616ZM32.584 4.472C32.644 4.472 32.692 4.52 32.68 4.604L32.62 5.024H30.916L31 4.472H32.584ZM30.7 6.512L30.784 5.96H32.488L32.404 6.512H30.7ZM37.36 6.992H36.244C36.184 7.772 36.076 8.54 35.908 9.2C35.56 10.568 34.972 11.516 33.436 12.572H35.236C35.692 12.08 36.124 11.492 36.448 10.844C36.724 11.444 36.988 12.008 37.276 12.596H38.668C38.116 11.768 37.636 10.976 37.264 10.256H36.724C36.844 9.956 36.952 9.644 37.024 9.332C37.18 8.672 37.288 7.832 37.36 6.992ZM31.768 12.308L31.924 11.216H33.352L33.496 10.232H32.068L32.236 9.056H33.688L33.82 8.036H28.84L28.708 9.056H30.964L30.58 11.648C30.412 11.516 30.256 11.372 30.1 11.18L30.472 9.788H29.236C28.912 11.084 28.408 12.62 27.844 14.084H29.2C29.392 13.52 29.596 12.884 29.788 12.248C31.54 13.856 33.856 14.084 36.736 14.084H38.524L39.028 13.004H37.228C35.272 13.004 33.148 12.98 31.768 12.308Z" fill="white"></path>
</svg>