<svg xmlns="http://www.w3.org/2000/svg" width="44" height="18" viewBox="0 0 44 18">
  <path d="M0 4C0 1.79086 1.79086 0 4 0H44V14C44 16.2091 42.2091 18 40 18H0V4Z" fill="#3464E0"></path>
  <path d="M8.46401 8.504H10.456L10.612 7.496H8.66801C8.94401 6.02 9.10001 4.688 9.24401 3.284H7.94801C7.85201 4.448 7.62401 6.056 7.36001 7.496H5.22401L5.05601 8.504H7.16801C7.06001 9.008 6.95201 9.476 6.85601 9.848H4.49201L4.33601 10.856H6.50801C6.00401 11.996 5.17601 13.1 4.24001 14.084H5.92001C6.79601 13.064 7.49201 11.888 7.86401 10.856H10.528L10.684 9.848H8.15201C8.27201 9.38 8.36801 8.936 8.46401 8.504ZM14.488 3.284L13.132 12.98H11.236L11.56 14.084H14.296L15.724 3.284H14.488ZM7.14401 6.776C6.97601 5.948 6.78401 5.108 6.59201 4.052H5.40401C5.60801 5.108 5.78801 5.948 5.94401 6.776H7.14401ZM10.396 6.776C10.804 5.948 11.176 5.12 11.596 4.052H10.372C9.97601 5.036 9.60401 5.864 9.11201 6.776H10.396ZM13.348 4.208H12.136L11.044 11.708H12.304L13.348 4.208Z" fill="white"></path>
  <path d="M18.484 7.112L18.364 8.06H19.912L19.3 12.392H20.404L21.004 8.06H22.648L22.768 7.112H21.136L21.664 3.284H20.596L20.056 7.112H18.484ZM24.76 5.024C25.792 4.868 26.956 4.664 27.604 4.52L27.82 3.308C26.68 3.644 24.82 4.016 23.68 4.208C23.404 7.1 22.948 10.448 21.484 14.084H22.78C23.464 12.2 23.968 10.16 24.316 8.132H25.288L24.472 14.084H25.72L26.512 8.132H27.484L27.64 7.1H24.484C24.592 6.404 24.688 5.708 24.76 5.024ZM21.76 12.716H17.452L18.736 3.62H17.584L16.156 13.724H21.604L21.76 12.716ZM19.972 6.644C19.876 5.696 19.816 4.784 19.78 3.92H18.832C18.856 4.832 18.904 5.708 18.976 6.644H19.972ZM22.396 6.644C22.732 5.732 23.008 4.832 23.248 3.92H22.276C22.024 4.844 21.736 5.72 21.376 6.644H22.396ZM17.62 11.888H18.712C19.06 10.892 19.396 9.716 19.672 8.564H18.688C18.424 9.656 18.052 10.82 17.62 11.888ZM21.16 11.888H22.216C22.096 10.688 22.06 9.596 22.036 8.564H21.112C21.1 9.608 21.112 10.712 21.16 11.888Z" fill="white"></path>
  <path d="M33.88 4.4C33.976 3.728 33.856 3.512 33.088 3.512H29.968L29.356 7.484H33.46L33.88 4.4ZM39.616 4.592L39.748 3.596H34.444L34.312 4.592H36.376C36.256 4.916 36.136 5.252 35.992 5.588H34.588L33.904 10.556H35.092L35.62 6.548H37.912C38.032 6.548 38.08 6.596 38.068 6.716L37.54 10.556H38.716L39.232 6.476C39.316 5.804 39.172 5.588 38.464 5.588H37.24C37.36 5.252 37.48 4.916 37.576 4.592H39.616ZM32.584 4.472C32.644 4.472 32.692 4.52 32.68 4.604L32.62 5.024H30.916L31 4.472H32.584ZM30.7 6.512L30.784 5.96H32.488L32.404 6.512H30.7ZM37.36 6.992H36.244C36.184 7.772 36.076 8.54 35.908 9.2C35.56 10.568 34.972 11.516 33.436 12.572H35.236C35.692 12.08 36.124 11.492 36.448 10.844C36.724 11.444 36.988 12.008 37.276 12.596H38.668C38.116 11.768 37.636 10.976 37.264 10.256H36.724C36.844 9.956 36.952 9.644 37.024 9.332C37.18 8.672 37.288 7.832 37.36 6.992ZM31.768 12.308L31.924 11.216H33.352L33.496 10.232H32.068L32.236 9.056H33.688L33.82 8.036H28.84L28.708 9.056H30.964L30.58 11.648C30.412 11.516 30.256 11.372 30.1 11.18L30.472 9.788H29.236C28.912 11.084 28.408 12.62 27.844 14.084H29.2C29.392 13.52 29.596 12.884 29.788 12.248C31.54 13.856 33.856 14.084 36.736 14.084H38.524L39.028 13.004H37.228C35.272 13.004 33.148 12.98 31.768 12.308Z" fill="white"></path>
</svg>