<svg xmlns="http://www.w3.org/2000/svg" width="44" height="18" viewBox="0 0 44 18">
  <path d="M0 4C0 1.79086 1.79086 0 4 0H44V14C44 16.2091 42.2091 18 40 18H0V4Z" fill="#3464E0"></path>
  <path d="M8.54801 10.34L8.70401 9.32C7.79201 9.428 7.10801 9.488 6.72401 9.524C7.81601 8.372 8.90801 7.028 9.90401 5.744H8.41601C8.20001 6.056 7.94801 6.392 7.68401 6.74H6.65201C7.34801 5.72 8.04401 4.58 8.74001 3.284H7.28801C6.55601 4.82 5.66801 6.26 4.72001 7.7H6.94001C6.11201 8.732 5.17601 9.824 4.31201 10.7C5.60801 10.604 7.39601 10.448 8.54801 10.34ZM14.5 3.692H10.24L8.86001 13.052H7.72001L7.58801 14.084H14.692L14.836 13.052H13.876L15.112 4.436C15.196 3.86 15.064 3.692 14.5 3.692ZM13.732 4.724C13.792 4.724 13.816 4.748 13.804 4.832L13.528 6.74H11.044L11.344 4.724H13.732ZM13.072 9.824H10.6L10.9 7.748H13.384L13.072 9.824ZM10.132 13.052L10.456 10.832H12.928L12.604 13.052H10.132ZM8.45201 11.18C7.14401 11.6 5.63201 12.068 4.21601 12.44L4.03601 13.616C5.66801 13.16 7.01201 12.728 8.27201 12.308L8.45201 11.18Z" fill="white"></path>
  <path d="M16.588 8.66H18.388C19.684 6.908 20.416 5.72 21.172 4.568H23.836C23.98 4.568 24.088 4.58 24.148 4.724C24.784 6.092 25.42 7.664 25.888 8.66H27.568C26.788 7.268 25.924 5.408 25.324 4.124C25.132 3.728 24.988 3.524 24.544 3.524H20.356C19.444 4.964 18.232 6.884 16.588 8.66ZM24.772 7.676L24.892 6.632H19.9L19.78 7.676H24.772ZM25.132 9.272H18.136L17.44 14.084H25.336L25.924 10.148C26.02 9.488 25.876 9.272 25.132 9.272ZM24.496 10.472L24.112 13.052H18.964L19.372 10.304H24.352C24.484 10.304 24.52 10.364 24.496 10.472Z" fill="white"></path>
  <path d="M33.88 4.4C33.976 3.728 33.856 3.512 33.088 3.512H29.968L29.356 7.484H33.46L33.88 4.4ZM39.616 4.592L39.748 3.596H34.444L34.312 4.592H36.376C36.256 4.916 36.136 5.252 35.992 5.588H34.588L33.904 10.556H35.092L35.62 6.548H37.912C38.032 6.548 38.08 6.596 38.068 6.716L37.54 10.556H38.716L39.232 6.476C39.316 5.804 39.172 5.588 38.464 5.588H37.24C37.36 5.252 37.48 4.916 37.576 4.592H39.616ZM32.584 4.472C32.644 4.472 32.692 4.52 32.68 4.604L32.62 5.024H30.916L31 4.472H32.584ZM30.7 6.512L30.784 5.96H32.488L32.404 6.512H30.7ZM37.36 6.992H36.244C36.184 7.772 36.076 8.54 35.908 9.2C35.56 10.568 34.972 11.516 33.436 12.572H35.236C35.692 12.08 36.124 11.492 36.448 10.844C36.724 11.444 36.988 12.008 37.276 12.596H38.668C38.116 11.768 37.636 10.976 37.264 10.256H36.724C36.844 9.956 36.952 9.644 37.024 9.332C37.18 8.672 37.288 7.832 37.36 6.992ZM31.768 12.308L31.924 11.216H33.352L33.496 10.232H32.068L32.236 9.056H33.688L33.82 8.036H28.84L28.708 9.056H30.964L30.58 11.648C30.412 11.516 30.256 11.372 30.1 11.18L30.472 9.788H29.236C28.912 11.084 28.408 12.62 27.844 14.084H29.2C29.392 13.52 29.596 12.884 29.788 12.248C31.54 13.856 33.856 14.084 36.736 14.084H38.524L39.028 13.004H37.228C35.272 13.004 33.148 12.98 31.768 12.308Z" fill="white"></path>
</svg>