<svg xmlns="http://www.w3.org/2000/svg" width="44" height="18" viewBox="0 0 44 18">
  <path d="M0 4C0 1.79086 1.79086 0 4 0H44V14C44 16.2091 42.2091 18 40 18H0V4Z" fill="#3464E0"></path>
  <path d="M8.704 5.908C8.332 5.164 7.96 4.36 7.72 3.784H6.412C6.664 4.444 7 5.26 7.3 5.908H8.704ZM14.956 4.048H9.016L9.496 5.116H13.876C14.116 5.116 14.212 5.14 14.188 5.404L13.072 13.504H11.044L11.356 14.584H14.26L15.592 4.744C15.652 4.264 15.532 4.048 14.956 4.048ZM4.276 14.584H5.608L6.808 6.16L5.62 5.38L4.276 14.584ZM12.592 7.708C12.664 7.144 12.568 6.904 11.98 6.904H7.996L7.276 11.992H12.016L12.592 7.708ZM11.212 8.068L10.828 10.996H8.752L9.172 7.9H11.056C11.176 7.9 11.224 7.936 11.212 8.068Z" fill="white"></path>
  <path d="M19.24 5.416H19.72C19.816 5.752 19.948 6.112 20.128 6.52H21.556C21.352 6.172 21.148 5.74 21.016 5.416H22.552L22.72 4.408H19.936C20.08 4.192 20.212 3.976 20.32 3.784H18.868C18.388 4.6 17.68 5.524 16.792 6.592H18.352C18.64 6.22 18.952 5.824 19.24 5.416ZM24.952 4.408C25.096 4.192 25.228 3.976 25.348 3.784H23.908C23.368 4.648 22.696 5.536 21.82 6.58H23.416C23.692 6.208 23.992 5.812 24.268 5.416H24.712C24.808 5.728 24.964 6.172 25.168 6.676H26.596C26.332 6.124 26.152 5.704 26.044 5.416H27.892L28.06 4.408H24.952ZM24.268 7.012H19.504C18.748 7.984 17.524 9.376 16.372 10.432H18.04C18.652 9.82 19.78 8.56 20.248 7.996H23.86C23.98 7.996 23.992 8.008 24.064 8.128C24.46 8.752 25.18 9.796 25.648 10.432H27.22C26.452 9.472 25.492 8.176 25 7.408C24.808 7.108 24.616 7.012 24.268 7.012ZM19.84 8.86L19.696 9.844H24.1L24.244 8.86H19.84ZM25.108 10.756H17.848L17.296 14.488H25.444L25.828 11.656C25.936 10.912 25.792 10.756 25.108 10.756ZM24.436 11.932L24.244 13.504H18.844L19.06 11.74H24.316C24.436 11.74 24.46 11.788 24.436 11.932Z" fill="white"></path>
  <path d="M33.88 4.9C33.976 4.228 33.856 4.012 33.088 4.012H29.968L29.356 7.984H33.46L33.88 4.9ZM39.616 5.092L39.748 4.096H34.444L34.312 5.092H36.376C36.256 5.416 36.136 5.752 35.992 6.088H34.588L33.904 11.056H35.092L35.62 7.048H37.912C38.032 7.048 38.08 7.096 38.068 7.216L37.54 11.056H38.716L39.232 6.976C39.316 6.304 39.172 6.088 38.464 6.088H37.24C37.36 5.752 37.48 5.416 37.576 5.092H39.616ZM32.584 4.972C32.644 4.972 32.692 5.02 32.68 5.104L32.62 5.524H30.916L31 4.972H32.584ZM30.7 7.012L30.784 6.46H32.488L32.404 7.012H30.7ZM37.36 7.492H36.244C36.184 8.272 36.076 9.04 35.908 9.7C35.56 11.068 34.972 12.016 33.436 13.072H35.236C35.692 12.58 36.124 11.992 36.448 11.344C36.724 11.944 36.988 12.508 37.276 13.096H38.668C38.116 12.268 37.636 11.476 37.264 10.756H36.724C36.844 10.456 36.952 10.144 37.024 9.832C37.18 9.172 37.288 8.332 37.36 7.492ZM31.768 12.808L31.924 11.716H33.352L33.496 10.732H32.068L32.236 9.556H33.688L33.82 8.536H28.84L28.708 9.556H30.964L30.58 12.148C30.412 12.016 30.256 11.872 30.1 11.68L30.472 10.288H29.236C28.912 11.584 28.408 13.12 27.844 14.584H29.2C29.392 14.02 29.596 13.384 29.788 12.748C31.54 14.356 33.856 14.584 36.736 14.584H38.524L39.028 13.504H37.228C35.272 13.504 33.148 13.48 31.768 12.808Z" fill="white"></path>
</svg>