<svg xmlns="http://www.w3.org/2000/svg" fill="none" viewBox="0 0 20 20" class="design-iconfont">
  <path d="M9.99948 2.5L7.7071 7.1791L2.5 7.93416L6.27209 11.6219L5.3704 16.75L9.99948 14.2822L14.6295 16.75L13.7345 11.6219L17.5 7.93416L12.3217 7.1791L9.99948 2.5Z" fill="#999"/>
  <path fill-rule="evenodd" clip-rule="evenodd" d="M9.99624 1.25C10.4722 1.24878 10.9075 1.51796 11.1191 1.9443L13.1502 6.03669L17.6803 6.69724C18.1505 6.7658 18.5412 7.09502 18.6884 7.54679C18.8357 7.99856 18.7141 8.49475 18.3746 8.82722L15.0789 12.0548L15.8609 16.5351C15.943 17.0057 15.7497 17.482 15.3628 17.7623C14.976 18.0426 14.4632 18.0778 14.0416 17.8531L9.99951 15.6987L5.95842 17.853C5.53657 18.0779 5.02341 18.0425 4.63644 17.7618C4.24947 17.4812 4.05648 17.0044 4.13926 16.5335L4.92677 12.0548L1.62614 8.82798C1.2861 8.49555 1.16415 7.99897 1.3115 7.54684C1.45885 7.09471 1.84998 6.76534 2.32059 6.6971L6.8748 6.03671L8.87693 1.95006C9.08633 1.52264 9.52029 1.25123 9.99624 1.25ZM10.0067 5.32637L8.8296 7.72904C8.64797 8.09977 8.29501 8.35692 7.88646 8.41616L5.1822 8.8083L7.1459 10.7281C7.44094 11.0165 7.57463 11.432 7.50318 11.8384L7.04566 14.4404L9.41141 13.1792C9.77892 12.9832 10.2199 12.9832 10.5874 13.1791L12.9579 14.4426L12.5031 11.8368C12.4323 11.4313 12.5657 11.0169 12.8598 10.7289L14.8223 8.80694L12.1414 8.41602C11.7354 8.35683 11.3844 8.10225 11.202 7.73481L10.0067 5.32637Z" fill="#999"/>
</svg>
