<svg xmlns="http://www.w3.org/2000/svg" fill="none" viewBox="0 0 16 17" class="design-iconfont">
  <path fill-rule="evenodd" clip-rule="evenodd" d="M8 2.5C11.3138 2.5 14 5.18615 14 8.5C14 11.8138 11.3138 14.5 8 14.5C4.68615 14.5 2 11.8138 2 8.5C2 5.18615 4.68615 2.5 8 2.5ZM8 3.42308C5.19569 3.42308 2.92308 5.69569 2.92308 8.5C2.92308 11.3034 5.19662 13.5769 8 13.5769C10.8043 13.5769 13.0769 11.3043 13.0769 8.5C13.0769 5.69569 10.8043 3.42308 8 3.42308ZM11.2326 6.86842L10.5797 6.21551L7.31573 9.47823L5.3576 7.5201L4.70469 8.17302L7.31573 10.7841L11.2326 6.86842Z" fill="#0AD0B6"/>
</svg>
