<svg xmlns="http://www.w3.org/2000/svg" width="16" height="16" viewBox="0 0 16 16">
  <path fill-rule="evenodd" clip-rule="evenodd" d="M8 2C11.3138 2 14 4.68615 14 8C14 11.3138 11.3138 14 8 14C4.68615 14 2 11.3138 2 8C2 4.68615 4.68615 2 8 2ZM8 2.92308C5.19569 2.92308 2.92308 5.19569 2.92308 8C2.92308 10.8034 5.19662 13.0769 8 13.0769C10.8043 13.0769 13.0769 10.8043 13.0769 8C13.0769 5.19569 10.8043 2.92308 8 2.92308ZM8.46154 9.38462V4.76923H7.53846V9.38462H8.46154ZM8.46154 10.3077V11.2308H7.53846V10.3077H8.46154Z" fill="#FF7548"></path>
</svg>