<svg xmlns="http://www.w3.org/2000/svg" viewBox="0 0 16 16" class="design-iconfont" width="128" height="128">
  <path d="M7.99958 2L6.16568 5.74328L2 6.34733L5.01767 9.29753L4.29632 13.4L7.99958 11.4258L11.7036 13.4L10.9876 9.29753L14 6.34733L9.85739 5.74328L7.99958 2Z" fill="#FFA940"></path>
  <path fill-rule="evenodd" clip-rule="evenodd" d="M7.99701 1C8.37777 0.999025 8.72605 1.21437 8.89533 1.55544L10.5202 4.82935L14.1443 5.3578C14.5204 5.41264 14.833 5.67602 14.9508 6.03743C15.0686 6.39885 14.9713 6.7958 14.6997 7.06178L12.0631 9.64386L12.6887 13.2281C12.7544 13.6046 12.5998 13.9856 12.2903 14.2098C11.9808 14.434 11.5705 14.4622 11.2333 14.2825L7.99963 12.559L4.76675 14.2824C4.42928 14.4623 4.01874 14.434 3.70917 14.2095C3.39959 13.9849 3.2452 13.6035 3.31143 13.2268L3.94143 9.64385L1.30093 7.06239C1.0289 6.79644 0.931336 6.39918 1.04922 6.03747C1.1671 5.67577 1.48 5.41228 1.85649 5.35768L5.49986 4.82937L7.10156 1.56004C7.26908 1.21811 7.61625 1.00098 7.99701 1ZM8.00539 4.2611L7.0637 6.18324C6.9184 6.47982 6.63603 6.68554 6.30918 6.73293L4.14577 7.04664L5.71674 8.58248C5.95277 8.81323 6.05972 9.1456 6.00256 9.47071L5.63655 11.5523L7.52915 10.5433C7.82315 10.3866 8.17591 10.3866 8.46994 10.5433L10.3663 11.554L10.0025 9.46947C9.94584 9.14504 10.0526 8.81352 10.2879 8.58308L11.8578 7.04555L9.7131 6.73282C9.38837 6.68547 9.10753 6.4818 8.96164 6.18784L8.00539 4.2611Z" fill="#FFA940"></path>
</svg>